<svg width="1460" height="1229" viewBox="0 0 1460 1229" fill="none" xmlns="http://www.w3.org/2000/svg">
<g style="mix-blend-mode:soft-light" opacity="0.7">
<path d="M-763.446 -96.6641H-834.563V-25.5476M-763.446 -96.6641V-25.5476M-763.446 -96.6641H-692.33M-763.446 -25.5476H-834.563M-763.446 -25.5476V45.5689M-763.446 -25.5476H-692.33M-834.563 -25.5476V45.5689M-763.446 45.5689H-834.563M-763.446 45.5689V116.685M-763.446 45.5689H-692.33M-834.563 45.5689V116.685M-763.446 116.685H-834.563M-763.446 116.685V187.802M-763.446 116.685H-692.33M-834.563 116.685V187.802M-763.446 187.802H-834.563M-763.446 187.802V258.918M-763.446 187.802H-692.33M-834.563 187.802V258.918M-763.446 258.918H-834.563M-763.446 258.918V330.035M-763.446 258.918H-692.33M-834.563 258.918V330.035M-763.446 330.035H-834.563M-763.446 330.035V401.151M-763.446 330.035H-692.33M-834.563 330.035V401.151M-763.446 401.151H-834.563M-763.446 401.151V472.268M-763.446 401.151H-692.33M-834.563 401.151V472.268M-763.446 472.268H-834.563M-763.446 472.268V543.384M-763.446 472.268H-692.33M-834.563 472.268V543.384M-763.446 543.384H-834.563M-763.446 543.384V614.501M-763.446 543.384H-692.33M-834.563 543.384V614.501M-763.446 614.501H-834.563M-763.446 614.501V685.617M-763.446 614.501H-692.33M-834.563 614.501V685.617M-763.446 685.617H-834.563M-763.446 685.617V756.734M-763.446 685.617H-692.33M-834.563 685.617V756.734M-763.446 756.734H-834.563M-763.446 756.734V827.85M-763.446 756.734H-692.33M-834.563 756.734V827.85M-763.446 827.85H-834.563M-763.446 827.85V898.967M-763.446 827.85H-692.33M-834.563 827.85V898.967M-763.446 898.967H-834.563M-763.446 898.967V970.083M-763.446 898.967H-692.33M-834.563 898.967V970.083M-763.446 970.083H-834.563M-763.446 970.083V1041.2M-763.446 970.083H-692.33M-834.563 970.083V1041.2M-763.446 1041.2H-834.563M-763.446 1041.2V1112.32M-763.446 1041.2H-692.33M-834.563 1041.2V1112.32M-763.446 1112.32H-834.563M-763.446 1112.32V1183.43M-763.446 1112.32H-692.33M-834.563 1112.32V1183.43M-763.446 1183.43H-834.563M-763.446 1183.43V1254.55M-763.446 1183.43H-692.33M-834.563 1183.43V1254.55M-763.446 1254.55H-834.563M-763.446 1254.55V1325.67M-763.446 1254.55H-692.33M-834.563 1254.55V1325.67H-763.446M-763.446 1325.67H-692.33M-692.33 -96.6641V-25.5476M-692.33 -96.6641H-621.213M-692.33 -25.5476V45.5689M-692.33 -25.5476H-621.213M-692.33 45.5689V116.685M-692.33 45.5689H-621.213M-692.33 116.685V187.802M-692.33 116.685H-621.213M-692.33 187.802V258.918M-692.33 187.802H-621.213M-692.33 258.918V330.035M-692.33 258.918H-621.213M-692.33 330.035V401.151M-692.33 330.035H-621.213M-692.33 401.151V472.268M-692.33 401.151H-621.213M-692.33 472.268V543.384M-692.33 472.268H-621.213M-692.33 543.384V614.501M-692.33 543.384H-621.213M-692.33 614.501V685.617M-692.33 614.501H-621.213M-692.33 685.617V756.734M-692.33 685.617H-621.213M-692.33 756.734V827.85M-692.33 756.734H-621.213M-692.33 827.85V898.967M-692.33 827.85H-621.213M-692.33 898.967V970.083M-692.33 898.967H-621.213M-692.33 970.083V1041.2M-692.33 970.083H-621.213M-692.33 1041.2V1112.32M-692.33 1041.2H-621.213M-692.33 1112.32V1183.43M-692.33 1112.32H-621.213M-692.33 1183.43V1254.55M-692.33 1183.43H-621.213M-692.33 1254.55V1325.67M-692.33 1254.55H-621.213M-692.33 1325.67H-621.213M-621.213 -96.6641V-25.5476M-621.213 -96.6641H-550.097M-621.213 -25.5476V45.5689M-621.213 -25.5476H-550.097M-621.213 45.5689V116.685M-621.213 45.5689H-550.097M-621.213 116.685V187.802M-621.213 116.685H-550.097M-621.213 187.802V258.918M-621.213 187.802H-550.097M-621.213 258.918V330.035M-621.213 258.918H-550.097M-621.213 330.035V401.151M-621.213 330.035H-550.097M-621.213 401.151V472.268M-621.213 401.151H-550.097M-621.213 472.268V543.384M-621.213 472.268H-550.097M-621.213 543.384V614.501M-621.213 543.384H-550.097M-621.213 614.501V685.617M-621.213 614.501H-550.097M-621.213 685.617V756.734M-621.213 685.617H-550.097M-621.213 756.734V827.85M-621.213 756.734H-550.097M-621.213 827.85V898.967M-621.213 827.85H-550.097M-621.213 898.967V970.083M-621.213 898.967H-550.097M-621.213 970.083V1041.2M-621.213 970.083H-550.097M-621.213 1041.2V1112.32M-621.213 1041.2H-550.097M-621.213 1112.32V1183.43M-621.213 1112.32H-550.097M-621.213 1183.43V1254.55M-621.213 1183.43H-550.097M-621.213 1254.55V1325.67M-621.213 1254.55H-550.097M-621.213 1325.67H-550.097M-550.097 -96.6641V-25.5476M-550.097 -96.6641H-478.98M-550.097 -25.5476V45.5689M-550.097 -25.5476H-478.98M-550.097 45.5689V116.685M-550.097 45.5689H-478.98M-550.097 116.685V187.802M-550.097 116.685H-478.98M-550.097 187.802V258.918M-550.097 187.802H-478.98M-550.097 258.918V330.035M-550.097 258.918H-478.98M-550.097 330.035V401.151M-550.097 330.035H-478.98M-550.097 401.151V472.268M-550.097 401.151H-478.98M-550.097 472.268V543.384M-550.097 472.268H-478.98M-550.097 543.384V614.501M-550.097 543.384H-478.98M-550.097 614.501V685.617M-550.097 614.501H-478.98M-550.097 685.617V756.734M-550.097 685.617H-478.98M-550.097 756.734V827.85M-550.097 756.734H-478.98M-550.097 827.85V898.967M-550.097 827.85H-478.98M-550.097 898.967V970.083M-550.097 898.967H-478.98M-550.097 970.083V1041.2M-550.097 970.083H-478.98M-550.097 1041.2V1112.32M-550.097 1041.2H-478.98M-550.097 1112.32V1183.43M-550.097 1112.32H-478.98M-550.097 1183.43V1254.55M-550.097 1183.43H-478.98M-550.097 1254.55V1325.67M-550.097 1254.55H-478.98M-550.097 1325.67H-478.98M-478.98 -96.6641V-25.5476M-478.98 -96.6641H-407.864M-478.98 -25.5476V45.5689M-478.98 -25.5476H-407.864M-478.98 45.5689V116.685M-478.98 45.5689H-407.864M-478.98 116.685V187.802M-478.98 116.685H-407.864M-478.98 187.802V258.918M-478.98 187.802H-407.864M-478.98 258.918V330.035M-478.98 258.918H-407.864M-478.98 330.035V401.151M-478.98 330.035H-407.864M-478.98 401.151V472.268M-478.98 401.151H-407.864M-478.98 472.268V543.384M-478.98 472.268H-407.864M-478.98 543.384V614.501M-478.98 543.384H-407.864M-478.98 614.501V685.617M-478.98 614.501H-407.864M-478.98 685.617V756.734M-478.98 685.617H-407.864M-478.98 756.734V827.85M-478.98 756.734H-407.864M-478.98 827.85V898.967M-478.98 827.85H-407.864M-478.98 898.967V970.083M-478.98 898.967H-407.864M-478.98 970.083V1041.2M-478.98 970.083H-407.864M-478.98 1041.2V1112.32M-478.98 1041.2H-407.864M-478.98 1112.32V1183.43M-478.98 1112.32H-407.864M-478.98 1183.43V1254.55M-478.98 1183.43H-407.864M-478.98 1254.55V1325.67M-478.98 1254.55H-407.864M-478.98 1325.67H-407.864M-407.864 -96.6641V-25.5476M-407.864 -96.6641H-336.747M-407.864 -25.5476V45.5689M-407.864 -25.5476H-336.747M-407.864 45.5689V116.685M-407.864 45.5689H-336.747M-407.864 116.685V187.802M-407.864 116.685H-336.747M-407.864 187.802V258.918M-407.864 187.802H-336.747M-407.864 258.918V330.035M-407.864 258.918H-336.747M-407.864 330.035V401.151M-407.864 330.035H-336.747M-407.864 401.151V472.268M-407.864 401.151H-336.747M-407.864 472.268V543.384M-407.864 472.268H-336.747M-407.864 543.384V614.501M-407.864 543.384H-336.747M-407.864 614.501V685.617M-407.864 614.501H-336.747M-407.864 685.617V756.734M-407.864 685.617H-336.747M-407.864 756.734V827.85M-407.864 756.734H-336.747M-407.864 827.85V898.967M-407.864 827.85H-336.747M-407.864 898.967V970.083M-407.864 898.967H-336.747M-407.864 970.083V1041.2M-407.864 970.083H-336.747M-407.864 1041.2V1112.32M-407.864 1041.2H-336.747M-407.864 1112.32V1183.43M-407.864 1112.32H-336.747M-407.864 1183.43V1254.55M-407.864 1183.43H-336.747M-407.864 1254.55V1325.67M-407.864 1254.55H-336.747M-407.864 1325.67H-336.747M-336.747 -96.6641V-25.5476M-336.747 -96.6641H-265.631M-336.747 -25.5476V45.5689M-336.747 -25.5476H-265.631M-336.747 45.5689V116.685M-336.747 45.5689H-265.631M-336.747 116.685V187.802M-336.747 116.685H-265.631M-336.747 187.802V258.918M-336.747 187.802H-265.631M-336.747 258.918V330.035M-336.747 258.918H-265.631M-336.747 330.035V401.151M-336.747 330.035H-265.631M-336.747 401.151V472.268M-336.747 401.151H-265.631M-336.747 472.268V543.384M-336.747 472.268H-265.631M-336.747 543.384V614.501M-336.747 543.384H-265.631M-336.747 614.501V685.617M-336.747 614.501H-265.631M-336.747 685.617V756.734M-336.747 685.617H-265.631M-336.747 756.734V827.85M-336.747 756.734H-265.631M-336.747 827.85V898.967M-336.747 827.85H-265.631M-336.747 898.967V970.083M-336.747 898.967H-265.631M-336.747 970.083V1041.2M-336.747 970.083H-265.631M-336.747 1041.2V1112.32M-336.747 1041.2H-265.631M-336.747 1112.32V1183.43M-336.747 1112.32H-265.631M-336.747 1183.43V1254.55M-336.747 1183.43H-265.631M-336.747 1254.55V1325.67M-336.747 1254.55H-265.631M-336.747 1325.67H-265.631M-265.631 -96.6641V-25.5476M-265.631 -96.6641H-194.514M-265.631 -25.5476V45.5689M-265.631 -25.5476H-194.514M-265.631 45.5689V116.685M-265.631 45.5689H-194.514M-265.631 116.685V187.802M-265.631 116.685H-194.514M-265.631 187.802V258.918M-265.631 187.802H-194.514M-265.631 258.918V330.035M-265.631 258.918H-194.514M-265.631 330.035V401.151M-265.631 330.035H-194.514M-265.631 401.151V472.268M-265.631 401.151H-194.514M-265.631 472.268V543.384M-265.631 472.268H-194.514M-265.631 543.384V614.501M-265.631 543.384H-194.514M-265.631 614.501V685.617M-265.631 614.501H-194.514M-265.631 685.617V756.734M-265.631 685.617H-194.514M-265.631 756.734V827.85M-265.631 756.734H-194.514M-265.631 827.85V898.967M-265.631 827.85H-194.514M-265.631 898.967V970.083M-265.631 898.967H-194.514M-265.631 970.083V1041.2M-265.631 970.083H-194.514M-265.631 1041.2V1112.32M-265.631 1041.2H-194.514M-265.631 1112.32V1183.43M-265.631 1112.32H-194.514M-265.631 1183.43V1254.55M-265.631 1183.43H-194.514M-265.631 1254.55V1325.67M-265.631 1254.55H-194.514M-265.631 1325.67H-194.514M-194.514 -96.6641V-25.5476M-194.514 -96.6641H-123.398M-194.514 -25.5476V45.5689M-194.514 -25.5476H-123.398M-194.514 45.5689V116.685M-194.514 45.5689H-123.398M-194.514 116.685V187.802M-194.514 116.685H-123.398M-194.514 187.802V258.918M-194.514 187.802H-123.398M-194.514 258.918V330.035M-194.514 258.918H-123.398M-194.514 330.035V401.151M-194.514 330.035H-123.398M-194.514 401.151V472.268M-194.514 401.151H-123.398M-194.514 472.268V543.384M-194.514 472.268H-123.398M-194.514 543.384V614.501M-194.514 543.384H-123.398M-194.514 614.501V685.617M-194.514 614.501H-123.398M-194.514 685.617V756.734M-194.514 685.617H-123.398M-194.514 756.734V827.85M-194.514 756.734H-123.398M-194.514 827.85V898.967M-194.514 827.85H-123.398M-194.514 898.967V970.083M-194.514 898.967H-123.398M-194.514 970.083V1041.2M-194.514 970.083H-123.398M-194.514 1041.2V1112.32M-194.514 1041.2H-123.398M-194.514 1112.32V1183.43M-194.514 1112.32H-123.398M-194.514 1183.43V1254.55M-194.514 1183.43H-123.398M-194.514 1254.55V1325.67M-194.514 1254.55H-123.398M-194.514 1325.67H-123.398M-123.398 -96.6641V-25.5476M-123.398 -96.6641H-52.2814M-123.398 -25.5476V45.5689M-123.398 -25.5476H-52.2814M-123.398 45.5689V116.685M-123.398 45.5689H-52.2814M-123.398 116.685V187.802M-123.398 116.685H-52.2814M-123.398 187.802V258.918M-123.398 187.802H-52.2814M-123.398 258.918V330.035M-123.398 258.918H-52.2814M-123.398 330.035V401.151M-123.398 330.035H-52.2814M-123.398 401.151V472.268M-123.398 401.151H-52.2814M-123.398 472.268V543.384M-123.398 472.268H-52.2814M-123.398 543.384V614.501M-123.398 543.384H-52.2814M-123.398 614.501V685.617M-123.398 614.501H-52.2814M-123.398 685.617V756.734M-123.398 685.617H-52.2814M-123.398 756.734V827.85M-123.398 756.734H-52.2814M-123.398 827.85V898.967M-123.398 827.85H-52.2814M-123.398 898.967V970.083M-123.398 898.967H-52.2814M-123.398 970.083V1041.2M-123.398 970.083H-52.2814M-123.398 1041.2V1112.32M-123.398 1041.2H-52.2814M-123.398 1112.32V1183.43M-123.398 1112.32H-52.2814M-123.398 1183.43V1254.55M-123.398 1183.43H-52.2814M-123.398 1254.55V1325.67M-123.398 1254.55H-52.2814M-123.398 1325.67H-52.2814M-52.2814 -96.6641V-25.5476M-52.2814 -96.6641H18.8351M-52.2814 -25.5476V45.5689M-52.2814 -25.5476H18.8351M-52.2814 45.5689V116.685M-52.2814 45.5689H18.8351M-52.2814 116.685V187.802M-52.2814 116.685H18.8351M-52.2814 187.802V258.918M-52.2814 187.802H18.8351M-52.2814 258.918V330.035M-52.2814 258.918H18.8351M-52.2814 330.035V401.151M-52.2814 330.035H18.8351M-52.2814 401.151V472.268M-52.2814 401.151H18.8351M-52.2814 472.268V543.384M-52.2814 472.268H18.8351M-52.2814 543.384V614.501M-52.2814 543.384H18.8351M-52.2814 614.501V685.617M-52.2814 614.501H18.8351M-52.2814 685.617V756.734M-52.2814 685.617H18.8351M-52.2814 756.734V827.85M-52.2814 756.734H18.8351M-52.2814 827.85V898.967M-52.2814 827.85H18.8351M-52.2814 898.967V970.083M-52.2814 898.967H18.8351M-52.2814 970.083V1041.2M-52.2814 970.083H18.8351M-52.2814 1041.2V1112.32M-52.2814 1041.2H18.8351M-52.2814 1112.32V1183.43M-52.2814 1112.32H18.8351M-52.2814 1183.43V1254.55M-52.2814 1183.43H18.8351M-52.2814 1254.55V1325.67M-52.2814 1254.55H18.8351M-52.2814 1325.67H18.8351M18.8351 -96.6641V-25.5476M18.8351 -96.6641H89.9516M18.8351 -25.5476V45.5689M18.8351 -25.5476H89.9516M18.8351 45.5689V116.685M18.8351 45.5689H89.9516M18.8351 116.685V187.802M18.8351 116.685H89.9516M18.8351 187.802V258.918M18.8351 187.802H89.9516M18.8351 258.918V330.035M18.8351 258.918H89.9516M18.8351 330.035V401.151M18.8351 330.035H89.9516M18.8351 401.151V472.268M18.8351 401.151H89.9516M18.8351 472.268V543.384M18.8351 472.268H89.9516M18.8351 543.384V614.501M18.8351 543.384H89.9516M18.8351 614.501V685.617M18.8351 614.501H89.9516M18.8351 685.617V756.734M18.8351 685.617H89.9516M18.8351 756.734V827.85M18.8351 756.734H89.9516M18.8351 827.85V898.967M18.8351 827.85H89.9516M18.8351 898.967V970.083M18.8351 898.967H89.9516M18.8351 970.083V1041.2M18.8351 970.083H89.9516M18.8351 1041.2V1112.32M18.8351 1041.2H89.9516M18.8351 1112.32V1183.43M18.8351 1112.32H89.9516M18.8351 1183.43V1254.55M18.8351 1183.43H89.9516M18.8351 1254.55V1325.67M18.8351 1254.55H89.9516M18.8351 1325.67H89.9516M89.9516 -96.6641V-25.5476M89.9516 -96.6641H161.068M89.9516 -25.5476V45.5689M89.9516 -25.5476H161.068M89.9516 45.5689V116.685M89.9516 45.5689H161.068M89.9516 116.685V187.802M89.9516 116.685H161.068M89.9516 187.802V258.918M89.9516 187.802H161.068M89.9516 258.918V330.035M89.9516 258.918H161.068M89.9516 330.035V401.151M89.9516 330.035H161.068M89.9516 401.151V472.268M89.9516 401.151H161.068M89.9516 472.268V543.384M89.9516 472.268H161.068M89.9516 543.384V614.501M89.9516 543.384H161.068M89.9516 614.501V685.617M89.9516 614.501H161.068M89.9516 685.617V756.734M89.9516 685.617H161.068M89.9516 756.734V827.85M89.9516 756.734H161.068M89.9516 827.85V898.967M89.9516 827.85H161.068M89.9516 898.967V970.083M89.9516 898.967H161.068M89.9516 970.083V1041.2M89.9516 970.083H161.068M89.9516 1041.2V1112.32M89.9516 1041.2H161.068M89.9516 1112.32V1183.43M89.9516 1112.32H161.068M89.9516 1183.43V1254.55M89.9516 1183.43H161.068M89.9516 1254.55V1325.67M89.9516 1254.55H161.068M89.9516 1325.67H161.068M161.068 -96.6641V-25.5476M161.068 -96.6641H232.185M161.068 -25.5476V45.5689M161.068 -25.5476H232.185M161.068 45.5689V116.685M161.068 45.5689H232.185M161.068 116.685V187.802M161.068 116.685H232.185M161.068 187.802V258.918M161.068 187.802H232.185M161.068 258.918V330.035M161.068 258.918H232.185M161.068 330.035V401.151M161.068 330.035H232.185M161.068 401.151V472.268M161.068 401.151H232.185M161.068 472.268V543.384M161.068 472.268H232.185M161.068 543.384V614.501M161.068 543.384H232.185M161.068 614.501V685.617M161.068 614.501H232.185M161.068 685.617V756.734M161.068 685.617H232.185M161.068 756.734V827.85M161.068 756.734H232.185M161.068 827.85V898.967M161.068 827.85H232.185M161.068 898.967V970.083M161.068 898.967H232.185M161.068 970.083V1041.2M161.068 970.083H232.185M161.068 1041.2V1112.32M161.068 1041.2H232.185M161.068 1112.32V1183.43M161.068 1112.32H232.185M161.068 1183.43V1254.55M161.068 1183.43H232.185M161.068 1254.55V1325.67M161.068 1254.55H232.185M161.068 1325.67H232.185M232.185 -96.6641V-25.5476M232.185 -96.6641H303.301M232.185 -25.5476V45.5689M232.185 -25.5476H303.301M232.185 45.5689V116.685M232.185 45.5689H303.301M232.185 116.685V187.802M232.185 116.685H303.301M232.185 187.802V258.918M232.185 187.802H303.301M232.185 258.918V330.035M232.185 258.918H303.301M232.185 330.035V401.151M232.185 330.035H303.301M232.185 401.151V472.268M232.185 401.151H303.301M232.185 472.268V543.384M232.185 472.268H303.301M232.185 543.384V614.501M232.185 543.384H303.301M232.185 614.501V685.617M232.185 614.501H303.301M232.185 685.617V756.734M232.185 685.617H303.301M232.185 756.734V827.85M232.185 756.734H303.301M232.185 827.85V898.967M232.185 827.85H303.301M232.185 898.967V970.083M232.185 898.967H303.301M232.185 970.083V1041.2M232.185 970.083H303.301M232.185 1041.2V1112.32M232.185 1041.2H303.301M232.185 1112.32V1183.43M232.185 1112.32H303.301M232.185 1183.43V1254.55M232.185 1183.43H303.301M232.185 1254.55V1325.67M232.185 1254.55H303.301M232.185 1325.67H303.301M303.301 -96.6641V-25.5476M303.301 -96.6641H374.418M303.301 -25.5476V45.5689M303.301 -25.5476H374.418M303.301 45.5689V116.685M303.301 45.5689H374.418M303.301 116.685V187.802M303.301 116.685H374.418M303.301 187.802V258.918M303.301 187.802H374.418M303.301 258.918V330.035M303.301 258.918H374.418M303.301 330.035V401.151M303.301 330.035H374.418M303.301 401.151V472.268M303.301 401.151H374.418M303.301 472.268V543.384M303.301 472.268H374.418M303.301 543.384V614.501M303.301 543.384H374.418M303.301 614.501V685.617M303.301 614.501H374.418M303.301 685.617V756.734M303.301 685.617H374.418M303.301 756.734V827.85M303.301 756.734H374.418M303.301 827.85V898.967M303.301 827.85H374.418M303.301 898.967V970.083M303.301 898.967H374.418M303.301 970.083V1041.2M303.301 970.083H374.418M303.301 1041.2V1112.32M303.301 1041.2H374.418M303.301 1112.32V1183.43M303.301 1112.32H374.418M303.301 1183.43V1254.55M303.301 1183.43H374.418M303.301 1254.55V1325.67M303.301 1254.55H374.418M303.301 1325.67H374.418M374.418 -96.6641V-25.5476M374.418 -96.6641H445.534M374.418 -25.5476V45.5689M374.418 -25.5476H445.534M374.418 45.5689V116.685M374.418 45.5689H445.534M374.418 116.685V187.802M374.418 116.685H445.534M374.418 187.802V258.918M374.418 187.802H445.534M374.418 258.918V330.035M374.418 258.918H445.534M374.418 330.035V401.151M374.418 330.035H445.534M374.418 401.151V472.268M374.418 401.151H445.534M374.418 472.268V543.384M374.418 472.268H445.534M374.418 543.384V614.501M374.418 543.384H445.534M374.418 614.501V685.617M374.418 614.501H445.534M374.418 685.617V756.734M374.418 685.617H445.534M374.418 756.734V827.85M374.418 756.734H445.534M374.418 827.85V898.967M374.418 827.85H445.534M374.418 898.967V970.083M374.418 898.967H445.534M374.418 970.083V1041.2M374.418 970.083H445.534M374.418 1041.2V1112.32M374.418 1041.2H445.534M374.418 1112.32V1183.43M374.418 1112.32H445.534M374.418 1183.43V1254.55M374.418 1183.43H445.534M374.418 1254.55V1325.67M374.418 1254.55H445.534M374.418 1325.67H445.534M445.534 -96.6641V-25.5476M445.534 -96.6641H516.651M445.534 -25.5476V45.5689M445.534 -25.5476H516.651M445.534 45.5689V116.685M445.534 45.5689H516.651M445.534 116.685V187.802M445.534 116.685H516.651M445.534 187.802V258.918M445.534 187.802H516.651M445.534 258.918V330.035M445.534 258.918H516.651M445.534 330.035V401.151M445.534 330.035H516.651M445.534 401.151V472.268M445.534 401.151H516.651M445.534 472.268V543.384M445.534 472.268H516.651M445.534 543.384V614.501M445.534 543.384H516.651M445.534 614.501V685.617M445.534 614.501H516.651M445.534 685.617V756.734M445.534 685.617H516.651M445.534 756.734V827.85M445.534 756.734H516.651M445.534 827.85V898.967M445.534 827.85H516.651M445.534 898.967V970.083M445.534 898.967H516.651M445.534 970.083V1041.2M445.534 970.083H516.651M445.534 1041.2V1112.32M445.534 1041.2H516.651M445.534 1112.32V1183.43M445.534 1112.32H516.651M445.534 1183.43V1254.55M445.534 1183.43H516.651M445.534 1254.55V1325.67M445.534 1254.55H516.651M445.534 1325.67H516.651M516.651 -96.6641V-25.5476M516.651 -96.6641H587.767M516.651 -25.5476V45.5689M516.651 -25.5476H587.767M516.651 45.5689V116.685M516.651 45.5689H587.767M516.651 116.685V187.802M516.651 116.685H587.767M516.651 187.802V258.918M516.651 187.802H587.767M516.651 258.918V330.035M516.651 258.918H587.767M516.651 330.035V401.151M516.651 330.035H587.767M516.651 401.151V472.268M516.651 401.151H587.767M516.651 472.268V543.384M516.651 472.268H587.767M516.651 543.384V614.501M516.651 543.384H587.767M516.651 614.501V685.617M516.651 614.501H587.767M516.651 685.617V756.734M516.651 685.617H587.767M516.651 756.734V827.85M516.651 756.734H587.767M516.651 827.85V898.967M516.651 827.85H587.767M516.651 898.967V970.083M516.651 898.967H587.767M516.651 970.083V1041.2M516.651 970.083H587.767M516.651 1041.2V1112.32M516.651 1041.2H587.767M516.651 1112.32V1183.43M516.651 1112.32H587.767M516.651 1183.43V1254.55M516.651 1183.43H587.767M516.651 1254.55V1325.67M516.651 1254.55H587.767M516.651 1325.67H587.767M587.767 -96.6641V-25.5476M587.767 -96.6641H658.884M587.767 -25.5476V45.5689M587.767 -25.5476H658.884M587.767 45.5689V116.685M587.767 45.5689H658.884M587.767 116.685V187.802M587.767 116.685H658.884M587.767 187.802V258.918M587.767 187.802H658.884M587.767 258.918V330.035M587.767 258.918H658.884M587.767 330.035V401.151M587.767 330.035H658.884M587.767 401.151V472.268M587.767 401.151H658.884M587.767 472.268V543.384M587.767 472.268H658.884M587.767 543.384V614.501M587.767 543.384H658.884M587.767 614.501V685.617M587.767 614.501H658.884M587.767 685.617V756.734M587.767 685.617H658.884M587.767 756.734V827.85M587.767 756.734H658.884M587.767 827.85V898.967M587.767 827.85H658.884M587.767 898.967V970.083M587.767 898.967H658.884M587.767 970.083V1041.2M587.767 970.083H658.884M587.767 1041.2V1112.32M587.767 1041.2H658.884M587.767 1112.32V1183.43M587.767 1112.32H658.884M587.767 1183.43V1254.55M587.767 1183.43H658.884M587.767 1254.55V1325.67M587.767 1254.55H658.884M587.767 1325.67H658.884M658.884 -96.6641V-25.5476M658.884 -96.6641H730M658.884 -25.5476V45.5689M658.884 -25.5476H730M658.884 45.5689V116.685M658.884 45.5689H730M658.884 116.685V187.802M658.884 116.685H730M658.884 187.802V258.918M658.884 187.802H730M658.884 258.918V330.035M658.884 258.918H730M658.884 330.035V401.151M658.884 330.035H730M658.884 401.151V472.268M658.884 401.151H730M658.884 472.268V543.384M658.884 472.268H730M658.884 543.384V614.501M658.884 543.384H730M658.884 614.501V685.617M658.884 614.501H730M658.884 685.617V756.734M658.884 685.617H730M658.884 756.734V827.85M658.884 756.734H730M658.884 827.85V898.967M658.884 827.85H730M658.884 898.967V970.083M658.884 898.967H730M658.884 970.083V1041.2M658.884 970.083H730M658.884 1041.2V1112.32M658.884 1041.2H730M658.884 1112.32V1183.43M658.884 1112.32H730M658.884 1183.43V1254.55M658.884 1183.43H730M658.884 1254.55V1325.67M658.884 1254.55H730M658.884 1325.67H730M730 -96.6641V-25.5476M730 -96.6641H801.117M730 -25.5476V45.5689M730 -25.5476H801.117M730 45.5689V116.685M730 45.5689H801.117M730 116.685V187.802M730 116.685H801.117M730 187.802V258.918M730 187.802H801.117M730 258.918V330.035M730 258.918H801.117M730 330.035V401.151M730 330.035H801.117M730 401.151V472.268M730 401.151H801.117M730 472.268V543.384M730 472.268H801.117M730 543.384V614.501M730 543.384H801.117M730 614.501V685.617M730 614.501H801.117M730 685.617V756.734M730 685.617H801.117M730 756.734V827.85M730 756.734H801.117M730 827.85V898.967M730 827.85H801.117M730 898.967V970.083M730 898.967H801.117M730 970.083V1041.2M730 970.083H801.117M730 1041.2V1112.32M730 1041.2H801.117M730 1112.32V1183.43M730 1112.32H801.117M730 1183.43V1254.55M730 1183.43H801.117M730 1254.55V1325.67M730 1254.55H801.117M730 1325.67H801.117M801.117 -96.6641V-25.5476M801.117 -96.6641H872.233M801.117 -25.5476V45.5689M801.117 -25.5476H872.233M801.117 45.5689V116.685M801.117 45.5689H872.233M801.117 116.685V187.802M801.117 116.685H872.233M801.117 187.802V258.918M801.117 187.802H872.233M801.117 258.918V330.035M801.117 258.918H872.233M801.117 330.035V401.151M801.117 330.035H872.233M801.117 401.151V472.268M801.117 401.151H872.233M801.117 472.268V543.384M801.117 472.268H872.233M801.117 543.384V614.501M801.117 543.384H872.233M801.117 614.501V685.617M801.117 614.501H872.233M801.117 685.617V756.734M801.117 685.617H872.233M801.117 756.734V827.85M801.117 756.734H872.233M801.117 827.85V898.967M801.117 827.85H872.233M801.117 898.967V970.083M801.117 898.967H872.233M801.117 970.083V1041.2M801.117 970.083H872.233M801.117 1041.2V1112.32M801.117 1041.2H872.233M801.117 1112.32V1183.43M801.117 1112.32H872.233M801.117 1183.43V1254.55M801.117 1183.43H872.233M801.117 1254.55V1325.67M801.117 1254.55H872.233M801.117 1325.67H872.233M872.233 -96.6641V-25.5476M872.233 -96.6641H943.35M872.233 -25.5476V45.5689M872.233 -25.5476H943.35M872.233 45.5689V116.685M872.233 45.5689H943.35M872.233 116.685V187.802M872.233 116.685H943.35M872.233 187.802V258.918M872.233 187.802H943.35M872.233 258.918V330.035M872.233 258.918H943.35M872.233 330.035V401.151M872.233 330.035H943.35M872.233 401.151V472.268M872.233 401.151H943.35M872.233 472.268V543.384M872.233 472.268H943.35M872.233 543.384V614.501M872.233 543.384H943.35M872.233 614.501V685.617M872.233 614.501H943.35M872.233 685.617V756.734M872.233 685.617H943.35M872.233 756.734V827.85M872.233 756.734H943.35M872.233 827.85V898.967M872.233 827.85H943.35M872.233 898.967V970.083M872.233 898.967H943.35M872.233 970.083V1041.2M872.233 970.083H943.35M872.233 1041.2V1112.32M872.233 1041.2H943.35M872.233 1112.32V1183.43M872.233 1112.32H943.35M872.233 1183.43V1254.55M872.233 1183.43H943.35M872.233 1254.55V1325.67M872.233 1254.55H943.35M872.233 1325.67H943.35M943.35 -96.6641V-25.5476M943.35 -96.6641H1014.47M943.35 -25.5476V45.5689M943.35 -25.5476H1014.47M943.35 45.5689V116.685M943.35 45.5689H1014.47M943.35 116.685V187.802M943.35 116.685H1014.47M943.35 187.802V258.918M943.35 187.802H1014.47M943.35 258.918V330.035M943.35 258.918H1014.47M943.35 330.035V401.151M943.35 330.035H1014.47M943.35 401.151V472.268M943.35 401.151H1014.47M943.35 472.268V543.384M943.35 472.268H1014.47M943.35 543.384V614.501M943.35 543.384H1014.47M943.35 614.501V685.617M943.35 614.501H1014.47M943.35 685.617V756.734M943.35 685.617H1014.47M943.35 756.734V827.85M943.35 756.734H1014.47M943.35 827.85V898.967M943.35 827.85H1014.47M943.35 898.967V970.083M943.35 898.967H1014.47M943.35 970.083V1041.2M943.35 970.083H1014.47M943.35 1041.2V1112.32M943.35 1041.2H1014.47M943.35 1112.32V1183.43M943.35 1112.32H1014.47M943.35 1183.43V1254.55M943.35 1183.43H1014.47M943.35 1254.55V1325.67M943.35 1254.55H1014.47M943.35 1325.67H1014.47M1014.47 -96.6641V-25.5476M1014.47 -96.6641H1085.58M1014.47 -25.5476V45.5689M1014.47 -25.5476H1085.58M1014.47 45.5689V116.685M1014.47 45.5689H1085.58M1014.47 116.685V187.802M1014.47 116.685H1085.58M1014.47 187.802V258.918M1014.47 187.802H1085.58M1014.47 258.918V330.035M1014.47 258.918H1085.58M1014.47 330.035V401.151M1014.47 330.035H1085.58M1014.47 401.151V472.268M1014.47 401.151H1085.58M1014.47 472.268V543.384M1014.47 472.268H1085.58M1014.47 543.384V614.501M1014.47 543.384H1085.58M1014.47 614.501V685.617M1014.47 614.501H1085.58M1014.47 685.617V756.734M1014.47 685.617H1085.58M1014.47 756.734V827.85M1014.47 756.734H1085.58M1014.47 827.85V898.967M1014.47 827.85H1085.58M1014.47 898.967V970.083M1014.47 898.967H1085.58M1014.47 970.083V1041.2M1014.47 970.083H1085.58M1014.47 1041.2V1112.32M1014.47 1041.2H1085.58M1014.47 1112.32V1183.43M1014.47 1112.32H1085.58M1014.47 1183.43V1254.55M1014.47 1183.43H1085.58M1014.47 1254.55V1325.67M1014.47 1254.55H1085.58M1014.47 1325.67H1085.58M1085.58 -96.6641V-25.5476M1085.58 -96.6641H1156.7M1085.58 -25.5476V45.5689M1085.58 -25.5476H1156.7M1085.58 45.5689V116.685M1085.58 45.5689H1156.7M1085.58 116.685V187.802M1085.58 116.685H1156.7M1085.58 187.802V258.918M1085.58 187.802H1156.7M1085.58 258.918V330.035M1085.58 258.918H1156.7M1085.58 330.035V401.151M1085.58 330.035H1156.7M1085.58 401.151V472.268M1085.58 401.151H1156.7M1085.58 472.268V543.384M1085.58 472.268H1156.7M1085.58 543.384V614.501M1085.58 543.384H1156.7M1085.58 614.501V685.617M1085.58 614.501H1156.7M1085.58 685.617V756.734M1085.58 685.617H1156.7M1085.58 756.734V827.85M1085.58 756.734H1156.7M1085.58 827.85V898.967M1085.58 827.85H1156.7M1085.58 898.967V970.083M1085.58 898.967H1156.7M1085.58 970.083V1041.2M1085.58 970.083H1156.7M1085.58 1041.2V1112.32M1085.58 1041.2H1156.7M1085.58 1112.32V1183.43M1085.58 1112.32H1156.7M1085.58 1183.43V1254.55M1085.58 1183.43H1156.7M1085.58 1254.55V1325.67M1085.58 1254.55H1156.7M1085.58 1325.67H1156.7M1156.7 -96.6641V-25.5476M1156.7 -96.6641H1227.82M1156.7 -25.5476V45.5689M1156.7 -25.5476H1227.82M1156.7 45.5689V116.685M1156.7 45.5689H1227.82M1156.7 116.685V187.802M1156.7 116.685H1227.82M1156.7 187.802V258.918M1156.7 187.802H1227.82M1156.7 258.918V330.035M1156.7 258.918H1227.82M1156.7 330.035V401.151M1156.7 330.035H1227.82M1156.7 401.151V472.268M1156.7 401.151H1227.82M1156.7 472.268V543.384M1156.7 472.268H1227.82M1156.7 543.384V614.501M1156.7 543.384H1227.82M1156.7 614.501V685.617M1156.7 614.501H1227.82M1156.7 685.617V756.734M1156.7 685.617H1227.82M1156.7 756.734V827.85M1156.7 756.734H1227.82M1156.7 827.85V898.967M1156.7 827.85H1227.82M1156.7 898.967V970.083M1156.7 898.967H1227.82M1156.7 970.083V1041.2M1156.7 970.083H1227.82M1156.7 1041.2V1112.32M1156.7 1041.2H1227.82M1156.7 1112.32V1183.43M1156.7 1112.32H1227.82M1156.7 1183.43V1254.55M1156.7 1183.43H1227.82M1156.7 1254.55V1325.67M1156.7 1254.55H1227.82M1156.7 1325.67H1227.82M1227.82 -96.6641V-25.5476M1227.82 -96.6641H1298.93M1227.82 -25.5476V45.5689M1227.82 -25.5476H1298.93M1227.82 45.5689V116.685M1227.82 45.5689H1298.93M1227.82 116.685V187.802M1227.82 116.685H1298.93M1227.82 187.802V258.918M1227.82 187.802H1298.93M1227.82 258.918V330.035M1227.82 258.918H1298.93M1227.82 330.035V401.151M1227.82 330.035H1298.93M1227.82 401.151V472.268M1227.82 401.151H1298.93M1227.82 472.268V543.384M1227.82 472.268H1298.93M1227.82 543.384V614.501M1227.82 543.384H1298.93M1227.82 614.501V685.617M1227.82 614.501H1298.93M1227.82 685.617V756.734M1227.82 685.617H1298.93M1227.82 756.734V827.85M1227.82 756.734H1298.93M1227.82 827.85V898.967M1227.82 827.85H1298.93M1227.82 898.967V970.083M1227.82 898.967H1298.93M1227.82 970.083V1041.2M1227.82 970.083H1298.93M1227.82 1041.2V1112.32M1227.82 1041.2H1298.93M1227.82 1112.32V1183.43M1227.82 1112.32H1298.93M1227.82 1183.43V1254.55M1227.82 1183.43H1298.93M1227.82 1254.55V1325.67M1227.82 1254.55H1298.93M1227.82 1325.67H1298.93M1298.93 -96.6641V-25.5476M1298.93 -96.6641H1370.05M1298.93 -25.5476V45.5689M1298.93 -25.5476H1370.05M1298.93 45.5689V116.685M1298.93 45.5689H1370.05M1298.93 116.685V187.802M1298.93 116.685H1370.05M1298.93 187.802V258.918M1298.93 187.802H1370.05M1298.93 258.918V330.035M1298.93 258.918H1370.05M1298.93 330.035V401.151M1298.93 330.035H1370.05M1298.93 401.151V472.268M1298.93 401.151H1370.05M1298.93 472.268V543.384M1298.93 472.268H1370.05M1298.93 543.384V614.501M1298.93 543.384H1370.05M1298.93 614.501V685.617M1298.93 614.501H1370.05M1298.93 685.617V756.734M1298.93 685.617H1370.05M1298.93 756.734V827.85M1298.93 756.734H1370.05M1298.93 827.85V898.967M1298.93 827.85H1370.05M1298.93 898.967V970.083M1298.93 898.967H1370.05M1298.93 970.083V1041.2M1298.93 970.083H1370.05M1298.93 1041.2V1112.32M1298.93 1041.2H1370.05M1298.93 1112.32V1183.43M1298.93 1112.32H1370.05M1298.93 1183.43V1254.55M1298.93 1183.43H1370.05M1298.93 1254.55V1325.67M1298.93 1254.55H1370.05M1298.93 1325.67H1370.05M1370.05 -96.6641V-25.5476M1370.05 -96.6641H1441.17M1370.05 -25.5476V45.5689M1370.05 -25.5476H1441.17M1370.05 45.5689V116.685M1370.05 45.5689H1441.17M1370.05 116.685V187.802M1370.05 116.685H1441.17M1370.05 187.802V258.918M1370.05 187.802H1441.17M1370.05 258.918V330.035M1370.05 258.918H1441.17M1370.05 330.035V401.151M1370.05 330.035H1441.17M1370.05 401.151V472.268M1370.05 401.151H1441.17M1370.05 472.268V543.384M1370.05 472.268H1441.17M1370.05 543.384V614.501M1370.05 543.384H1441.17M1370.05 614.501V685.617M1370.05 614.501H1441.17M1370.05 685.617V756.734M1370.05 685.617H1441.17M1370.05 756.734V827.85M1370.05 756.734H1441.17M1370.05 827.85V898.967M1370.05 827.85H1441.17M1370.05 898.967V970.083M1370.05 898.967H1441.17M1370.05 970.083V1041.2M1370.05 970.083H1441.17M1370.05 1041.2V1112.32M1370.05 1041.2H1441.17M1370.05 1112.32V1183.43M1370.05 1112.32H1441.17M1370.05 1183.43V1254.55M1370.05 1183.43H1441.17M1370.05 1254.55V1325.67M1370.05 1254.55H1441.17M1370.05 1325.67H1441.17M1441.17 -96.6641V-25.5476M1441.17 -96.6641H1512.28M1441.17 -25.5476V45.5689M1441.17 -25.5476H1512.28M1441.17 45.5689V116.685M1441.17 45.5689H1512.28M1441.17 116.685V187.802M1441.17 116.685H1512.28M1441.17 187.802V258.918M1441.17 187.802H1512.28M1441.17 258.918V330.035M1441.17 258.918H1512.28M1441.17 330.035V401.151M1441.17 330.035H1512.28M1441.17 401.151V472.268M1441.17 401.151H1512.28M1441.17 472.268V543.384M1441.17 472.268H1512.28M1441.17 543.384V614.501M1441.17 543.384H1512.28M1441.17 614.501V685.617M1441.17 614.501H1512.28M1441.17 685.617V756.734M1441.17 685.617H1512.28M1441.17 756.734V827.85M1441.17 756.734H1512.28M1441.17 827.85V898.967M1441.17 827.85H1512.28M1441.17 898.967V970.083M1441.17 898.967H1512.28M1441.17 970.083V1041.2M1441.17 970.083H1512.28M1441.17 1041.2V1112.32M1441.17 1041.2H1512.28M1441.17 1112.32V1183.43M1441.17 1112.32H1512.28M1441.17 1183.43V1254.55M1441.17 1183.43H1512.28M1441.17 1254.55V1325.67M1441.17 1254.55H1512.28M1441.17 1325.67H1512.28M1512.28 -96.6641V-25.5476M1512.28 -96.6641H1583.4M1512.28 -25.5476V45.5689M1512.28 -25.5476H1583.4M1512.28 45.5689V116.685M1512.28 45.5689H1583.4M1512.28 116.685V187.802M1512.28 116.685H1583.4M1512.28 187.802V258.918M1512.28 187.802H1583.4M1512.28 258.918V330.035M1512.28 258.918H1583.4M1512.28 330.035V401.151M1512.28 330.035H1583.4M1512.28 401.151V472.268M1512.28 401.151H1583.4M1512.28 472.268V543.384M1512.28 472.268H1583.4M1512.28 543.384V614.501M1512.28 543.384H1583.4M1512.28 614.501V685.617M1512.28 614.501H1583.4M1512.28 685.617V756.734M1512.28 685.617H1583.4M1512.28 756.734V827.85M1512.28 756.734H1583.4M1512.28 827.85V898.967M1512.28 827.85H1583.4M1512.28 898.967V970.083M1512.28 898.967H1583.4M1512.28 970.083V1041.2M1512.28 970.083H1583.4M1512.28 1041.2V1112.32M1512.28 1041.2H1583.4M1512.28 1112.32V1183.43M1512.28 1112.32H1583.4M1512.28 1183.43V1254.55M1512.28 1183.43H1583.4M1512.28 1254.55V1325.67M1512.28 1254.55H1583.4M1512.28 1325.67H1583.4M1583.4 -96.6641V-25.5476M1583.4 -96.6641H1654.51M1583.4 -25.5476V45.5689M1583.4 -25.5476H1654.51M1583.4 45.5689V116.685M1583.4 45.5689H1654.51M1583.4 116.685V187.802M1583.4 116.685H1654.51M1583.4 187.802V258.918M1583.4 187.802H1654.51M1583.4 258.918V330.035M1583.4 258.918H1654.51M1583.4 330.035V401.151M1583.4 330.035H1654.51M1583.4 401.151V472.268M1583.4 401.151H1654.51M1583.4 472.268V543.384M1583.4 472.268H1654.51M1583.4 543.384V614.501M1583.4 543.384H1654.51M1583.4 614.501V685.617M1583.4 614.501H1654.51M1583.4 685.617V756.734M1583.4 685.617H1654.51M1583.4 756.734V827.85M1583.4 756.734H1654.51M1583.4 827.85V898.967M1583.4 827.85H1654.51M1583.4 898.967V970.083M1583.4 898.967H1654.51M1583.4 970.083V1041.2M1583.4 970.083H1654.51M1583.4 1041.2V1112.32M1583.4 1041.2H1654.51M1583.4 1112.32V1183.43M1583.4 1112.32H1654.51M1583.4 1183.43V1254.55M1583.4 1183.43H1654.51M1583.4 1254.55V1325.67M1583.4 1254.55H1654.51M1583.4 1325.67H1654.51M1654.51 -96.6641V-25.5476M1654.51 -96.6641H1725.63M1654.51 -25.5476V45.5689M1654.51 -25.5476H1725.63M1654.51 45.5689V116.685M1654.51 45.5689H1725.63M1654.51 116.685V187.802M1654.51 116.685H1725.63M1654.51 187.802V258.918M1654.51 187.802H1725.63M1654.51 258.918V330.035M1654.51 258.918H1725.63M1654.51 330.035V401.151M1654.51 330.035H1725.63M1654.51 401.151V472.268M1654.51 401.151H1725.63M1654.51 472.268V543.384M1654.51 472.268H1725.63M1654.51 543.384V614.501M1654.51 543.384H1725.63M1654.51 614.501V685.617M1654.51 614.501H1725.63M1654.51 685.617V756.734M1654.51 685.617H1725.63M1654.51 756.734V827.85M1654.51 756.734H1725.63M1654.51 827.85V898.967M1654.51 827.85H1725.63M1654.51 898.967V970.083M1654.51 898.967H1725.63M1654.51 970.083V1041.2M1654.51 970.083H1725.63M1654.51 1041.2V1112.32M1654.51 1041.2H1725.63M1654.51 1112.32V1183.43M1654.51 1112.32H1725.63M1654.51 1183.43V1254.55M1654.51 1183.43H1725.63M1654.51 1254.55V1325.67M1654.51 1254.55H1725.63M1654.51 1325.67H1725.63M1725.63 -96.6641V-25.5476M1725.63 -96.6641H1796.75M1725.63 -25.5476V45.5689M1725.63 -25.5476H1796.75M1725.63 45.5689V116.685M1725.63 45.5689H1796.75M1725.63 116.685V187.802M1725.63 116.685H1796.75M1725.63 187.802V258.918M1725.63 187.802H1796.75M1725.63 258.918V330.035M1725.63 258.918H1796.75M1725.63 330.035V401.151M1725.63 330.035H1796.75M1725.63 401.151V472.268M1725.63 401.151H1796.75M1725.63 472.268V543.384M1725.63 472.268H1796.75M1725.63 543.384V614.501M1725.63 543.384H1796.75M1725.63 614.501V685.617M1725.63 614.501H1796.75M1725.63 685.617V756.734M1725.63 685.617H1796.75M1725.63 756.734V827.85M1725.63 756.734H1796.75M1725.63 827.85V898.967M1725.63 827.85H1796.75M1725.63 898.967V970.083M1725.63 898.967H1796.75M1725.63 970.083V1041.2M1725.63 970.083H1796.75M1725.63 1041.2V1112.32M1725.63 1041.2H1796.75M1725.63 1112.32V1183.43M1725.63 1112.32H1796.75M1725.63 1183.43V1254.55M1725.63 1183.43H1796.75M1725.63 1254.55V1325.67M1725.63 1254.55H1796.75M1725.63 1325.67H1796.75M1796.75 -96.6641V-25.5476M1796.75 -96.6641H1867.86M1796.75 -25.5476V45.5689M1796.75 -25.5476H1867.86M1796.75 45.5689V116.685M1796.75 45.5689H1867.86M1796.75 116.685V187.802M1796.75 116.685H1867.86M1796.75 187.802V258.918M1796.75 187.802H1867.86M1796.75 258.918V330.035M1796.75 258.918H1867.86M1796.75 330.035V401.151M1796.75 330.035H1867.86M1796.75 401.151V472.268M1796.75 401.151H1867.86M1796.75 472.268V543.384M1796.75 472.268H1867.86M1796.75 543.384V614.501M1796.75 543.384H1867.86M1796.75 614.501V685.617M1796.75 614.501H1867.86M1796.75 685.617V756.734M1796.75 685.617H1867.86M1796.75 756.734V827.85M1796.75 756.734H1867.86M1796.75 827.85V898.967M1796.75 827.85H1867.86M1796.75 898.967V970.083M1796.75 898.967H1867.86M1796.75 970.083V1041.2M1796.75 970.083H1867.86M1796.75 1041.2V1112.32M1796.75 1041.2H1867.86M1796.75 1112.32V1183.43M1796.75 1112.32H1867.86M1796.75 1183.43V1254.55M1796.75 1183.43H1867.86M1796.75 1254.55V1325.67M1796.75 1254.55H1867.86M1796.75 1325.67H1867.86M1867.86 -96.6641V-25.5476M1867.86 -96.6641H1938.98M1867.86 -25.5476V45.5689M1867.86 -25.5476H1938.98M1867.86 45.5689V116.685M1867.86 45.5689H1938.98M1867.86 116.685V187.802M1867.86 116.685H1938.98M1867.86 187.802V258.918M1867.86 187.802H1938.98M1867.86 258.918V330.035M1867.86 258.918H1938.98M1867.86 330.035V401.151M1867.86 330.035H1938.98M1867.86 401.151V472.268M1867.86 401.151H1938.98M1867.86 472.268V543.384M1867.86 472.268H1938.98M1867.86 543.384V614.501M1867.86 543.384H1938.98M1867.86 614.501V685.617M1867.86 614.501H1938.98M1867.86 685.617V756.734M1867.86 685.617H1938.98M1867.86 756.734V827.85M1867.86 756.734H1938.98M1867.86 827.85V898.967M1867.86 827.85H1938.98M1867.86 898.967V970.083M1867.86 898.967H1938.98M1867.86 970.083V1041.2M1867.86 970.083H1938.98M1867.86 1041.2V1112.32M1867.86 1041.2H1938.98M1867.86 1112.32V1183.43M1867.86 1112.32H1938.98M1867.86 1183.43V1254.55M1867.86 1183.43H1938.98M1867.86 1254.55V1325.67M1867.86 1254.55H1938.98M1867.86 1325.67H1938.98M1938.98 -96.6641V-25.5476M1938.98 -96.6641H2010.1M1938.98 -25.5476V45.5689M1938.98 -25.5476H2010.1M1938.98 45.5689V116.685M1938.98 45.5689H2010.1M1938.98 116.685V187.802M1938.98 116.685H2010.1M1938.98 187.802V258.918M1938.98 187.802H2010.1M1938.98 258.918V330.035M1938.98 258.918H2010.1M1938.98 330.035V401.151M1938.98 330.035H2010.1M1938.98 401.151V472.268M1938.98 401.151H2010.1M1938.98 472.268V543.384M1938.98 472.268H2010.1M1938.98 543.384V614.501M1938.98 543.384H2010.1M1938.98 614.501V685.617M1938.98 614.501H2010.1M1938.98 685.617V756.734M1938.98 685.617H2010.1M1938.98 756.734V827.85M1938.98 756.734H2010.1M1938.98 827.85V898.967M1938.98 827.85H2010.1M1938.98 898.967V970.083M1938.98 898.967H2010.1M1938.98 970.083V1041.2M1938.98 970.083H2010.1M1938.98 1041.2V1112.32M1938.98 1041.2H2010.1M1938.98 1112.32V1183.43M1938.98 1112.32H2010.1M1938.98 1183.43V1254.55M1938.98 1183.43H2010.1M1938.98 1254.55V1325.67M1938.98 1254.55H2010.1M1938.98 1325.67H2010.1M2010.1 -96.6641V-25.5476M2010.1 -96.6641H2081.21M2010.1 -25.5476V45.5689M2010.1 -25.5476H2081.21M2010.1 45.5689V116.685M2010.1 45.5689H2081.21M2010.1 116.685V187.802M2010.1 116.685H2081.21M2010.1 187.802V258.918M2010.1 187.802H2081.21M2010.1 258.918V330.035M2010.1 258.918H2081.21M2010.1 330.035V401.151M2010.1 330.035H2081.21M2010.1 401.151V472.268M2010.1 401.151H2081.21M2010.1 472.268V543.384M2010.1 472.268H2081.21M2010.1 543.384V614.501M2010.1 543.384H2081.21M2010.1 614.501V685.617M2010.1 614.501H2081.21M2010.1 685.617V756.734M2010.1 685.617H2081.21M2010.1 756.734V827.85M2010.1 756.734H2081.21M2010.1 827.85V898.967M2010.1 827.85H2081.21M2010.1 898.967V970.083M2010.1 898.967H2081.21M2010.1 970.083V1041.2M2010.1 970.083H2081.21M2010.1 1041.2V1112.32M2010.1 1041.2H2081.21M2010.1 1112.32V1183.43M2010.1 1112.32H2081.21M2010.1 1183.43V1254.55M2010.1 1183.43H2081.21M2010.1 1254.55V1325.67M2010.1 1254.55H2081.21M2010.1 1325.67H2081.21M2081.21 -96.6641V-25.5476M2081.21 -96.6641H2152.33M2081.21 -25.5476V45.5689M2081.21 -25.5476H2152.33M2081.21 45.5689V116.685M2081.21 45.5689H2152.33M2081.21 116.685V187.802M2081.21 116.685H2152.33M2081.21 187.802V258.918M2081.21 187.802H2152.33M2081.21 258.918V330.035M2081.21 258.918H2152.33M2081.21 330.035V401.151M2081.21 330.035H2152.33M2081.21 401.151V472.268M2081.21 401.151H2152.33M2081.21 472.268V543.384M2081.21 472.268H2152.33M2081.21 543.384V614.501M2081.21 543.384H2152.33M2081.21 614.501V685.617M2081.21 614.501H2152.33M2081.21 685.617V756.734M2081.21 685.617H2152.33M2081.21 756.734V827.85M2081.21 756.734H2152.33M2081.21 827.85V898.967M2081.21 827.85H2152.33M2081.21 898.967V970.083M2081.21 898.967H2152.33M2081.21 970.083V1041.2M2081.21 970.083H2152.33M2081.21 1041.2V1112.32M2081.21 1041.2H2152.33M2081.21 1112.32V1183.43M2081.21 1112.32H2152.33M2081.21 1183.43V1254.55M2081.21 1183.43H2152.33M2081.21 1254.55V1325.67M2081.21 1254.55H2152.33M2081.21 1325.67H2152.33M2152.33 -96.6641V-25.5476M2152.33 -96.6641H2223.45M2152.33 -25.5476V45.5689M2152.33 -25.5476H2223.45M2152.33 45.5689V116.685M2152.33 45.5689H2223.45M2152.33 116.685V187.802M2152.33 116.685H2223.45M2152.33 187.802V258.918M2152.33 187.802H2223.45M2152.33 258.918V330.035M2152.33 258.918H2223.45M2152.33 330.035V401.151M2152.33 330.035H2223.45M2152.33 401.151V472.268M2152.33 401.151H2223.45M2152.33 472.268V543.384M2152.33 472.268H2223.45M2152.33 543.384V614.501M2152.33 543.384H2223.45M2152.33 614.501V685.617M2152.33 614.501H2223.45M2152.33 685.617V756.734M2152.33 685.617H2223.45M2152.33 756.734V827.85M2152.33 756.734H2223.45M2152.33 827.85V898.967M2152.33 827.85H2223.45M2152.33 898.967V970.083M2152.33 898.967H2223.45M2152.33 970.083V1041.2M2152.33 970.083H2223.45M2152.33 1041.2V1112.32M2152.33 1041.2H2223.45M2152.33 1112.32V1183.43M2152.33 1112.32H2223.45M2152.33 1183.43V1254.55M2152.33 1183.43H2223.45M2152.33 1254.55V1325.67M2152.33 1254.55H2223.45M2152.33 1325.67H2223.45M2223.45 -96.6641V-25.5476M2223.45 -96.6641H2294.56V-25.5476M2223.45 -25.5476V45.5689M2223.45 -25.5476H2294.56M2223.45 45.5689V116.685M2223.45 45.5689H2294.56M2223.45 116.685V187.802M2223.45 116.685H2294.56M2223.45 187.802V258.918M2223.45 187.802H2294.56M2223.45 258.918V330.035M2223.45 258.918H2294.56M2223.45 330.035V401.151M2223.45 330.035H2294.56M2223.45 401.151V472.268M2223.45 401.151H2294.56M2223.45 472.268V543.384M2223.45 472.268H2294.56M2223.45 543.384V614.501M2223.45 543.384H2294.56M2223.45 614.501V685.617M2223.45 614.501H2294.56M2223.45 685.617V756.734M2223.45 685.617H2294.56M2223.45 756.734V827.85M2223.45 756.734H2294.56M2223.45 827.85V898.967M2223.45 827.85H2294.56M2223.45 898.967V970.083M2223.45 898.967H2294.56M2223.45 970.083V1041.2M2223.45 970.083H2294.56M2223.45 1041.2V1112.32M2223.45 1041.2H2294.56M2223.45 1112.32V1183.43M2223.45 1112.32H2294.56M2223.45 1183.43V1254.55M2223.45 1183.43H2294.56M2223.45 1254.55V1325.67M2223.45 1254.55H2294.56M2223.45 1325.67H2294.56V1254.55M2294.56 -25.5476V45.5689M2294.56 45.5689V116.685M2294.56 116.685V187.802M2294.56 187.802V258.918M2294.56 258.918V330.035M2294.56 330.035V401.151M2294.56 401.151V472.268M2294.56 472.268V543.384M2294.56 543.384V614.501M2294.56 614.501V685.617M2294.56 685.617V756.734M2294.56 756.734V827.85M2294.56 827.85V898.967M2294.56 898.967V970.083M2294.56 970.083V1041.2M2294.56 1041.2V1112.32M2294.56 1112.32V1183.43M2294.56 1183.43V1254.55" stroke="url(#paint0_radial_0_2813)" stroke-opacity="0.15" stroke-width="0.805493"/>
</g>
<g style="mix-blend-mode:soft-light" opacity="0.8">
<path d="M-550.097 166.466V187.801M-550.097 187.801V209.136M-550.097 187.801H-571.432M-550.097 187.801H-528.762M-550.097 735.398V756.733M-550.097 756.733V778.068M-550.097 756.733H-571.432M-550.097 756.733H-528.762M-550.097 1304.33V1325.66M-550.097 1325.66V1347M-550.097 1325.66H-571.432M-550.097 1325.66H-528.762M18.8351 166.466V187.801M18.8351 187.801V209.136M18.8351 187.801H-2.49981M18.8351 187.801H40.1701M18.8351 735.398V756.733M18.8351 756.733V778.068M18.8351 756.733H-2.49981M18.8351 756.733H40.1701M18.8351 1304.33V1325.66M18.8351 1325.66V1347M18.8351 1325.66H-2.49981M18.8351 1325.66H40.1701M587.767 166.466V187.801M587.767 187.801V209.136M587.767 187.801H566.432M587.767 187.801H609.102M587.767 735.398V756.733M587.767 756.733V778.068M587.767 756.733H566.432M587.767 756.733H609.102M587.767 1304.33V1325.66M587.767 1325.66V1347M587.767 1325.66H566.432M587.767 1325.66H609.102M1156.7 166.466V187.801M1156.7 187.801V209.136M1156.7 187.801H1135.36M1156.7 187.801H1178.03M1156.7 735.398V756.733M1156.7 756.733V778.068M1156.7 756.733H1135.36M1156.7 756.733H1178.03M1156.7 1304.33V1325.66M1156.7 1325.66V1347M1156.7 1325.66H1135.36M1156.7 1325.66H1178.03M1725.63 166.466V187.801M1725.63 187.801V209.136M1725.63 187.801H1704.3M1725.63 187.801H1746.97M1725.63 735.398V756.733M1725.63 756.733V778.068M1725.63 756.733H1704.3M1725.63 756.733H1746.97M1725.63 1304.33V1325.66M1725.63 1325.66V1347M1725.63 1325.66H1704.3M1725.63 1325.66H1746.97M2294.56 166.466V187.801M2294.56 187.801V209.136M2294.56 187.801H2273.23M2294.56 187.801H2315.9M2294.56 735.398V756.733M2294.56 756.733V778.068M2294.56 756.733H2273.23M2294.56 756.733H2315.9M2294.56 1304.33V1325.66M2294.56 1325.66V1347M2294.56 1325.66H2273.23M2294.56 1325.66H2315.9M-550.097 -118V-96.6648M-550.097 -96.6648V-75.3299M-550.097 -96.6648H-571.432M-550.097 -96.6648H-528.762M-550.097 450.932V472.267M-550.097 472.267V493.602M-550.097 472.267H-571.432M-550.097 472.267H-528.762M-550.097 1019.86V1041.2M-550.097 1041.2V1062.53M-550.097 1041.2H-571.432M-550.097 1041.2H-528.762M18.8351 -118V-96.6648M18.8351 -96.6648V-75.3299M18.8351 -96.6648H-2.49981M18.8351 -96.6648H40.1701M18.8351 450.932V472.267M18.8351 472.267V493.602M18.8351 472.267H-2.49981M18.8351 472.267H40.1701M18.8351 1019.86V1041.2M18.8351 1041.2V1062.53M18.8351 1041.2H-2.49981M18.8351 1041.2H40.1701M587.767 -118V-96.6648M587.767 -96.6648V-75.3299M587.767 -96.6648H566.432M587.767 -96.6648H609.102M587.767 450.932V472.267M587.767 472.267V493.602M587.767 472.267H566.432M587.767 472.267H609.102M587.767 1019.86V1041.2M587.767 1041.2V1062.53M587.767 1041.2H566.432M587.767 1041.2H609.102M1156.7 -118V-96.6648M1156.7 -96.6648V-75.3299M1156.7 -96.6648H1135.36M1156.7 -96.6648H1178.03M1156.7 450.932V472.267M1156.7 472.267V493.602M1156.7 472.267H1135.36M1156.7 472.267H1178.03M1156.7 1019.86V1041.2M1156.7 1041.2V1062.53M1156.7 1041.2H1135.36M1156.7 1041.2H1178.03M1725.63 -118V-96.6648M1725.63 -96.6648V-75.3299M1725.63 -96.6648H1704.3M1725.63 -96.6648H1746.97M1725.63 450.932V472.267M1725.63 472.267V493.602M1725.63 472.267H1704.3M1725.63 472.267H1746.97M1725.63 1019.86V1041.2M1725.63 1041.2V1062.53M1725.63 1041.2H1704.3M1725.63 1041.2H1746.97M2294.56 -118V-96.6648M2294.56 -96.6648V-75.3299M2294.56 -96.6648H2273.23M2294.56 -96.6648H2315.9M2294.56 450.932V472.267M2294.56 472.267V493.602M2294.56 472.267H2273.23M2294.56 472.267H2315.9M2294.56 1019.86V1041.2M2294.56 1041.2V1062.53M2294.56 1041.2H2273.23M2294.56 1041.2H2315.9M-834.563 166.466V187.801M-834.563 187.801V209.136M-834.563 187.801H-855.898M-834.563 187.801H-813.228M-834.563 735.398V756.733M-834.563 756.733V778.068M-834.563 756.733H-855.898M-834.563 756.733H-813.228M-834.563 1304.33V1325.66M-834.563 1325.66V1347M-834.563 1325.66H-855.898M-834.563 1325.66H-813.228M-265.631 166.466V187.801M-265.631 187.801V209.136M-265.631 187.801H-286.966M-265.631 187.801H-244.296M-265.631 735.398V756.733M-265.631 756.733V778.068M-265.631 756.733H-286.966M-265.631 756.733H-244.296M-265.631 1304.33V1325.66M-265.631 1325.66V1347M-265.631 1325.66H-286.966M-265.631 1325.66H-244.296M303.301 166.466V187.801M303.301 187.801V209.136M303.301 187.801H281.966M303.301 187.801H324.636M303.301 735.398V756.733M303.301 756.733V778.068M303.301 756.733H281.966M303.301 756.733H324.636M303.301 1304.33V1325.66M303.301 1325.66V1347M303.301 1325.66H281.966M303.301 1325.66H324.636M872.233 166.466V187.801M872.233 187.801V209.136M872.233 187.801H850.898M872.233 187.801H893.568M872.233 735.398V756.733M872.233 756.733V778.068M872.233 756.733H850.898M872.233 756.733H893.568M872.233 1304.33V1325.66M872.233 1325.66V1347M872.233 1325.66H850.898M872.233 1325.66H893.568M1441.17 166.466V187.801M1441.17 187.801V209.136M1441.17 187.801H1419.83M1441.17 187.801H1462.5M1441.17 735.398V756.733M1441.17 756.733V778.068M1441.17 756.733H1419.83M1441.17 756.733H1462.5M1441.17 1304.33V1325.66M1441.17 1325.66V1347M1441.17 1325.66H1419.83M1441.17 1325.66H1462.5M2010.1 166.466V187.801M2010.1 187.801V209.136M2010.1 187.801H1988.76M2010.1 187.801H2031.43M2010.1 735.398V756.733M2010.1 756.733V778.068M2010.1 756.733H1988.76M2010.1 756.733H2031.43M2010.1 1304.33V1325.66M2010.1 1325.66V1347M2010.1 1325.66H1988.76M2010.1 1325.66H2031.43M-834.563 -118V-96.6647M-834.563 -96.6647V-75.3297M-834.563 -96.6647H-855.898M-834.563 -96.6647H-813.228M-834.563 450.932V472.267M-834.563 472.267V493.602M-834.563 472.267H-855.898M-834.563 472.267H-813.228M-834.563 1019.86V1041.2M-834.563 1041.2V1062.53M-834.563 1041.2H-855.898M-834.563 1041.2H-813.228M-265.631 -118V-96.6648M-265.631 -96.6648V-75.3299M-265.631 -96.6648H-286.966M-265.631 -96.6648H-244.296M-265.631 450.932V472.267M-265.631 472.267V493.602M-265.631 472.267H-286.966M-265.631 472.267H-244.296M-265.631 1019.86V1041.2M-265.631 1041.2V1062.53M-265.631 1041.2H-286.966M-265.631 1041.2H-244.296M303.301 -118V-96.6648M303.301 -96.6648V-75.3299M303.301 -96.6648H281.966M303.301 -96.6648H324.636M303.301 450.932V472.267M303.301 472.267V493.602M303.301 472.267H281.966M303.301 472.267H324.636M303.301 1019.86V1041.2M303.301 1041.2V1062.53M303.301 1041.2H281.966M303.301 1041.2H324.636M872.233 -118V-96.6648M872.233 -96.6648V-75.3299M872.233 -96.6648H850.898M872.233 -96.6648H893.568M872.233 450.932V472.267M872.233 472.267V493.602M872.233 472.267H850.898M872.233 472.267H893.568M872.233 1019.86V1041.2M872.233 1041.2V1062.53M872.233 1041.2H850.898M872.233 1041.2H893.568M1441.17 -118V-96.6648M1441.17 -96.6648V-75.3299M1441.17 -96.6648H1419.83M1441.17 -96.6648H1462.5M1441.17 450.932V472.267M1441.17 472.267V493.602M1441.17 472.267H1419.83M1441.17 472.267H1462.5M1441.17 1019.86V1041.2M1441.17 1041.2V1062.53M1441.17 1041.2H1419.83M1441.17 1041.2H1462.5M2010.1 -118V-96.6648M2010.1 -96.6648V-75.3299M2010.1 -96.6648H1988.76M2010.1 -96.6648H2031.43M2010.1 450.932V472.267M2010.1 472.267V493.602M2010.1 472.267H1988.76M2010.1 472.267H2031.43M2010.1 1019.86V1041.2M2010.1 1041.2V1062.53M2010.1 1041.2H1988.76M2010.1 1041.2H2031.43" stroke="url(#paint1_radial_0_2813)" stroke-opacity="0.15" stroke-width="1.61099"/>
</g>
<defs>
<radialGradient id="paint0_radial_0_2813" cx="0" cy="0" r="1" gradientUnits="userSpaceOnUse" gradientTransform="translate(730 614.501) rotate(90) scale(711.165 1564.56)">
<stop stop-color="#2BE195"/>
<stop offset="1" stop-color="#2BE195" stop-opacity="0"/>
</radialGradient>
<radialGradient id="paint1_radial_0_2813" cx="0" cy="0" r="1" gradientUnits="userSpaceOnUse" gradientTransform="translate(730 614.5) rotate(90) scale(732.5 1585.9)">
<stop stop-color="#2BE195"/>
<stop offset="1" stop-color="#2BE195" stop-opacity="0"/>
</radialGradient>
</defs>
</svg>
