<svg width="1441" height="514" viewBox="0 0 1441 514" fill="none" xmlns="http://www.w3.org/2000/svg">
<path d="M1416.14 4.34517L1404.95 0.600586M1416.14 4.34517H1382.99M1416.14 4.34517L1427.69 8.21343M1416.14 4.34517H1439.61M1404.95 0.600586L1409.02 0.602046L1413.05 0.610154L1416.99 0.632951L1420.81 0.677848L1424.47 0.750708L1427.92 0.86038L1431.12 1.01273L1434.1 1.207L1436.65 1.47565L1438.97 1.78696L1439.61 1.89601V4.34517M1404.95 0.600586H1372.33M1372.33 0.600586H1339.72M1372.33 0.600586L1382.99 4.34517M1339.72 0.600586H1307.1M1339.72 0.600586L1349.84 4.34517M1307.1 0.600586H1274.48M1307.1 0.600586L1316.69 4.34517M1274.48 0.600586H1241.87M1274.48 0.600586L1283.54 4.34517M1241.87 0.600586H1209.25M1241.87 0.600586L1250.39 4.34517M1209.25 0.600586H1176.63M1209.25 0.600586L1217.24 4.34517M1176.63 0.600586H1144.02M1176.63 0.600586L1184.09 4.34517M1144.02 0.600586H1111.4M1144.02 0.600586L1150.94 4.34517M1111.4 0.600586H1078.78M1111.4 0.600586L1117.79 4.34517M1078.78 0.600586H1046.17M1078.78 0.600586L1084.64 4.34517M1046.17 0.600586H1013.55M1046.17 0.600586L1051.49 4.34517M1013.55 0.600586H980.933M1013.55 0.600586L1014.73 1.52569L1016.53 2.92625L1018.34 4.34517M980.933 0.600586H948.317M980.933 0.600586L981.985 1.52569L985.194 4.34517M948.317 0.600586H915.7M948.317 0.600586L952.045 4.34517M915.7 0.600586H883.083M915.7 0.600586L916.886 1.99081L918.088 3.39725L918.491 3.87048L918.896 4.34517M883.083 0.600586H850.467M883.083 0.600586L884.072 1.99081L884.404 2.45742L884.738 2.92625L885.747 4.34517M850.467 0.600586H817.85M850.467 0.600586L852.598 4.34517M817.85 0.600586L818.047 1.06203L818.244 1.52569L819.245 3.87048L819.448 4.34517M817.85 0.600586H785.234M785.234 0.600586H752.616M785.234 0.600586L786.299 4.34517M752.616 0.600586H720M752.616 0.600586L752.814 1.99081L753.149 4.34517M720 0.600586H687.384M720 0.600586V4.34517M687.384 0.600586H654.766M687.384 0.600586L687.186 1.99081L686.851 4.34517M654.766 0.600586H622.15M654.766 0.600586L653.701 4.34517M622.15 0.600586L621.953 1.06203L621.756 1.52569L620.755 3.87048L620.552 4.34517M622.15 0.600586H589.534M589.534 0.600586H556.916M589.534 0.600586L587.673 3.87048L587.402 4.34517M556.916 0.600586H524.3M556.916 0.600586L555.928 1.99081L555.596 2.45742L554.927 3.39725L554.591 3.87048L554.253 4.34517M524.3 0.600586H491.683M524.3 0.600586L523.114 1.99081L521.913 3.39725L521.509 3.87048L521.104 4.34517M491.683 0.600586H459.067M491.683 0.600586L487.955 4.34517M459.067 0.600586H426.45M459.067 0.600586L458.015 1.52569L454.806 4.34517M426.45 0.600586H393.833M426.45 0.600586L421.656 4.34517M393.833 0.600586H361.217M393.833 0.600586L388.507 4.34517M361.217 0.600586H328.6M361.217 0.600586L355.357 4.34517M328.6 0.600586H295.983M328.6 0.600586L322.208 4.34517M295.983 0.600586H263.367M295.983 0.600586L289.059 4.34517M263.367 0.600586H230.751M263.367 0.600586L255.909 4.34517M230.751 0.600586H198.133M230.751 0.600586L222.76 4.34517M198.133 0.600586H165.517M198.133 0.600586L189.61 4.34517M165.517 0.600586H132.9M165.517 0.600586L156.461 4.34517M132.9 0.600586H100.283M132.9 0.600586L123.312 4.34517M100.283 0.600586H67.6668M100.283 0.600586L90.163 4.34517M67.6668 0.600586H35.0504M67.6668 0.600586L57.0136 4.34517M35.0504 0.600586L30.9801 0.602046L26.9517 0.610154L23.0074 0.632951L19.1867 0.677848L15.5316 0.750708L12.0812 0.86038L8.87672 1.01273L5.90232 1.207L3.34995 1.47565L1.0262 1.78696L0.387546 1.89603V4.34517M35.0504 0.600586L23.8641 4.34517M90.163 4.34517H123.312M90.163 4.34517H57.0136M90.163 4.34517L79.7053 8.21343M123.312 4.34517L113.405 8.21343M123.312 4.34517H156.461M222.76 4.34517H255.909M222.76 4.34517H189.61M222.76 4.34517L220.722 5.30046L214.504 8.21343M255.909 4.34517L248.204 8.21343M255.909 4.34517H289.059M355.357 4.34517H388.507M355.357 4.34517H322.208M355.357 4.34517L353.863 5.30046L353.11 5.78032L349.303 8.21343M388.507 4.34517L387.828 4.82135L387.148 5.30046L383.003 8.21343M388.507 4.34517H421.656M487.955 4.34517L487.48 4.82135L484.102 8.21343M487.955 4.34517H521.104M487.955 4.34517H454.806M521.104 4.34517L520.289 5.30046L519.878 5.78032L519.467 6.26312L517.802 8.21343M521.104 4.34517H554.253M620.552 4.34517H653.701M620.552 4.34517H587.402M620.552 4.34517L618.901 8.21343M653.701 4.34517L653.566 4.82135L653.43 5.30046L653.293 5.78032L652.879 7.23386L652.601 8.21343M653.701 4.34517H686.851M753.149 4.34517H786.299M753.149 4.34517H720M753.149 4.34517L753.7 8.21343M786.299 4.34517L786.434 4.82135L786.57 5.30046L786.707 5.78032L787.399 8.21343M786.299 4.34517H819.448M885.747 4.34517H918.896M885.747 4.34517H852.598M885.747 4.34517L886.426 5.30046L887.802 7.23386L888.149 7.72254L888.499 8.21343M918.896 4.34517L919.711 5.30046L920.122 5.78032L920.534 6.26312L922.198 8.21343M918.896 4.34517H952.045M1018.34 4.34517H1051.49M1018.34 4.34517H985.194M1018.34 4.34517L1019.57 5.30046L1020.18 5.78032L1023.3 8.21343M1051.49 4.34517L1052.17 4.82135L1052.85 5.30046L1057 8.21343M1051.49 4.34517H1084.64M1150.94 4.34517H1184.09M1150.94 4.34517H1117.79M1150.94 4.34517L1152.71 5.30046L1153.6 5.78032L1158.1 8.21343M1184.09 4.34517L1191.8 8.21343M1184.09 4.34517H1217.24M1283.54 4.34517H1316.69M1283.54 4.34517H1250.39M1283.54 4.34517L1292.89 8.21343M1316.69 4.34517L1326.6 8.21343M1316.69 4.34517H1349.84M0.271359 39.3625H0.387546M33.6366 39.3625L46.2928 34.4205M33.6366 39.3625L20.4955 44.4937M33.6366 39.3625H71.7679M33.6366 39.3625H0.387546M46.2928 34.4205H8.86473M46.2928 34.4205L58.491 29.6573M46.2928 34.4205H83.7209M8.86473 34.4205L21.7405 29.6573M8.86473 34.4205H0.387546M8.86473 34.4205L0.387546 37.5558M46.1414 20.6299H81.6078M46.1414 20.6299L57.7137 16.3488M46.1414 20.6299H10.6758M46.1414 20.6299L34.1576 25.0634M81.6078 20.6299L92.5714 16.3488M81.6078 20.6299L70.2552 25.0634M81.6078 20.6299H117.074M57.7137 16.3488H92.5714M57.7137 16.3488L68.8954 12.2127M57.7137 16.3488H22.8567M92.5714 16.3488H127.428M92.5714 16.3488L103.164 12.2127M0.0224927 117.368H0.387546M30.7904 117.368L47.1106 109.174M30.7904 117.368L13.6591 125.969M30.7904 117.368H80.0202M30.7904 117.368H0.387546M47.1106 109.174L62.676 101.36M47.1106 109.174H95.174M47.1106 109.174H0.387546M15.7243 101.36H62.676M15.7243 101.36L31.6472 93.8984M15.7243 101.36H0.387546M15.7243 101.36L0.387546 108.546M46.8655 86.7669H91.7409M46.8655 86.7669L61.4257 79.9445M46.8655 86.7669H1.99018M46.8655 86.7669L31.6472 93.8984M91.7409 86.7669L105.331 79.9445M91.7409 86.7669L77.5368 93.8984M91.7409 86.7669H136.617M61.4257 79.9445H105.331M61.4257 79.9445H17.5211M61.4257 79.9445L75.3697 73.4106M105.331 79.9445L118.345 73.4106M105.331 79.9445H149.236M101.558 61.139H142.787M101.558 61.139L113.87 55.3698M101.558 61.139H60.3283M101.558 61.139L88.735 67.1475M142.787 61.139L154.278 55.3698M142.787 61.139L130.82 67.1475M142.787 61.139H184.017M113.87 55.3698H154.278M113.87 55.3698H73.4612M113.87 55.3698L125.701 49.8257M154.278 55.3698L165.321 49.8257M154.278 55.3698H194.687M148.03 39.3625H186.162M148.03 39.3625L158.577 34.4205M148.03 39.3625H109.899M148.03 39.3625L137.079 44.4937M186.162 39.3625L196.005 34.4205M186.162 39.3625L175.941 44.4937M186.162 39.3625H224.293M158.577 34.4205H196.005M158.577 34.4205H121.149M158.577 34.4205L168.742 29.6573M196.005 34.4205L205.493 29.6573M196.005 34.4205H233.433M188.006 20.6299H223.473M188.006 20.6299L197.142 16.3488M188.006 20.6299H152.541M188.006 20.6299L178.546 25.0634M223.473 20.6299L231.999 16.3488M223.473 20.6299L214.642 25.0634M223.473 20.6299H258.939M197.142 16.3488H231.999M197.142 16.3488L205.97 12.2127M197.142 16.3488H162.285M231.999 16.3488H266.857M231.999 16.3488L240.239 12.2127M25.6092 259.42L48.5784 243.275M25.6092 259.42L1.01196 276.708M25.6092 259.42H95.0481M25.6092 259.42H0.387546M48.5784 243.275L70.0775 228.164M48.5784 243.275H115.72M48.5784 243.275H0.387546M48.1121 200.67H109.193M48.1121 200.67L67.7403 188.128M48.1121 200.67L27.2658 213.991M48.1121 200.67H0.387546M109.193 200.67L127.036 188.128M109.193 200.67L90.2417 213.991M109.193 200.67H170.274M67.7403 188.128H127.036M67.7403 188.128H8.44421M67.7403 188.128L86.2546 176.297M127.036 188.128L143.868 176.297M127.036 188.128H186.333M120.298 154.544H174.817M120.298 154.544L135.985 144.52M120.298 154.544H65.7801M120.298 154.544L103.746 165.121M174.817 154.544L189.077 144.52M174.817 154.544L159.769 165.121M174.817 154.544H229.335M135.985 144.52H189.077M135.985 144.52H82.8926M135.985 144.52L150.871 135.008M189.077 144.52L202.611 135.008M189.077 144.52H242.169M178.478 117.368H227.708M178.478 117.368L191.301 109.174M178.478 117.368H129.249M178.478 117.368L165.018 125.969M227.708 117.368L239.365 109.174M227.708 117.368L215.471 125.969M227.708 117.368H276.937M191.301 109.174H239.365M191.301 109.174H143.238M191.301 109.174L203.531 101.36M239.365 109.174L250.483 101.36M239.365 109.174H287.428M226.368 86.7669H271.244M226.368 86.7669L237.046 79.9445M226.368 86.7669H181.492M226.368 86.7669L215.208 93.8984M271.244 86.7669L280.951 79.9445M271.244 86.7669L261.098 93.8984M271.244 86.7669H316.119M237.046 79.9445H280.951M237.046 79.9445H193.141M237.046 79.9445L247.271 73.4106M280.951 79.9445L290.247 73.4106M280.951 79.9445H324.856M266.476 61.139H307.705M266.476 61.139L275.504 55.3698M266.476 61.139H225.246M266.476 61.139L257.073 67.1475M307.705 61.139L308.75 60.4053L315.913 55.3698M307.705 61.139L299.157 67.1475M307.705 61.139H348.935M275.504 55.3698H315.913M275.504 55.3698H235.096M275.504 55.3698L284.181 49.8257M315.913 55.3698L323.801 49.8257M315.913 55.3698H356.322M300.555 39.3625H338.687M300.555 39.3625L308.29 34.4205M300.555 39.3625H262.424M300.555 39.3625L292.525 44.4937M338.687 39.3625L345.718 34.4205M338.687 39.3625L335.982 41.2642L331.386 44.4937M338.687 39.3625H376.818M308.29 34.4205H345.718M308.29 34.4205H270.862M308.29 34.4205L315.744 29.6573M345.718 34.4205L352.495 29.6573M345.718 34.4205H383.146M329.871 20.6299H365.338M329.871 20.6299L336.571 16.3488M329.871 20.6299H294.405M329.871 20.6299L322.934 25.0634M365.338 20.6299L369.926 17.4057L370.678 16.8758L371.429 16.3488M365.338 20.6299L359.03 25.0634M365.338 20.6299H400.804M336.571 16.3488H371.429M336.571 16.3488L343.045 12.2127M336.571 16.3488H301.714M371.429 16.3488H406.286M371.429 16.3488L377.313 12.2127M50.7679 443.332H146.373M50.7679 443.332L80.8717 413.104M50.7679 443.332L17.6882 476.548M50.7679 443.332L0.387546 443.333M146.373 443.332L172.176 413.104M146.373 443.332L118.019 476.548M146.373 443.332H241.977M80.8717 413.104H172.176M80.8717 413.104L108.384 385.479M80.8717 413.104H0.387546M172.176 413.104L195.758 385.479M172.176 413.104H263.48M156.866 336.798H237.314M156.866 336.798L178.334 315.241M156.866 336.798H76.4183M156.866 336.798L133.625 360.134M237.314 336.798L255.715 315.241M237.314 336.798L217.393 360.134M237.314 336.798H317.761M178.334 315.241H255.715M178.334 315.241H100.953M178.334 315.241L198.226 295.267M255.715 315.241L272.765 295.267M255.715 315.241H333.096M233.927 259.42H303.365M233.927 259.42L250.005 243.275M233.927 259.42H164.487M233.927 259.42L216.708 276.708M303.365 259.42L317.147 243.275M303.365 259.42L288.607 276.708M303.365 259.42H372.804M250.005 243.275H317.147M250.005 243.275H182.863M250.005 243.275L265.054 228.164M317.147 243.275L330.047 228.164M317.147 243.275H384.29M292.435 200.67H353.516M292.435 200.67L304.926 188.128M292.435 200.67H231.355M292.435 200.67L279.169 213.991M353.516 200.67L364.222 188.128M353.516 200.67L342.145 213.991M353.516 200.67H414.597M304.926 188.128H364.222M304.926 188.128H245.629M304.926 188.128L316.707 176.297M364.222 188.128L374.321 176.297M364.222 188.128H423.518M338.372 154.544H392.89M338.372 154.544L348.354 144.52M338.372 154.544H283.853M338.372 154.544L327.838 165.121M392.89 154.544L401.446 144.52M392.89 154.544L383.862 165.121M392.89 154.544H447.409M348.354 144.52H401.446M348.354 144.52H295.262M348.354 144.52L357.827 135.008M401.446 144.52L409.566 135.008M401.446 144.52H454.539M375.396 117.368H424.625M375.396 117.368L383.556 109.174M375.396 117.368H326.166M375.396 117.368L366.83 125.969M424.625 117.368L431.619 109.174M424.625 117.368L417.282 125.969M424.625 117.368H473.854M383.556 109.174H431.619M383.556 109.174H335.492M383.556 109.174L391.338 101.36M431.619 109.174L438.29 101.36M431.619 109.174H479.682M405.87 86.7669H450.747M405.87 86.7669L412.666 79.9445M405.87 86.7669H360.995M405.87 86.7669L398.769 93.8984M450.747 86.7669L456.57 79.9445M450.747 86.7669L444.659 93.8984M450.747 86.7669H495.622M412.666 79.9445H456.57M412.666 79.9445H368.76M412.666 79.9445L419.173 73.4106M456.57 79.9445L462.148 73.4106M456.57 79.9445H500.476M431.393 61.139H472.624M431.393 61.139L437.139 55.3698M431.393 61.139H390.164M431.393 61.139L425.409 67.1475M472.624 61.139L471.993 61.8765L467.494 67.1475M472.624 61.139L477.548 55.3698M472.624 61.139H513.853M437.139 55.3698H477.548M437.139 55.3698H396.731M437.139 55.3698L442.661 49.8257M477.548 55.3698L482.281 49.8257M477.548 55.3698H517.957M453.081 39.3625H491.212M453.081 39.3625L458.003 34.4205M453.081 39.3625H414.95M453.081 39.3625L447.971 44.4937M491.212 39.3625L495.431 34.4205M491.212 39.3625L489.589 41.2642L488.494 42.547L486.832 44.4937M491.212 39.3625H529.343M458.003 34.4205H495.431M458.003 34.4205H420.575M458.003 34.4205L462.746 29.6573M495.431 34.4205L496.973 32.6137L497.99 31.4229L499.497 29.6573M495.431 34.4205H532.859M471.737 20.6299H507.202M471.737 20.6299L474.948 17.4057L476 16.3488M471.737 20.6299H436.27M471.737 20.6299L467.882 24.5004L467.322 25.0634M507.202 20.6299L509.956 17.4057L510.407 16.8758L510.857 16.3488M507.202 20.6299L505.327 22.8268L503.418 25.0634M507.202 20.6299H542.669M476 16.3488H510.857M476 16.3488L480.119 12.2127M476 16.3488H441.143M510.857 16.3488H545.714M510.857 16.3488L514.388 12.2127M433.186 443.332H528.791M433.186 443.332L446.088 413.104M433.186 443.332H337.582M433.186 443.332L419.009 476.548M528.791 443.332L537.392 413.104M528.791 443.332L519.34 476.548M528.791 443.332H624.396M446.088 413.104H537.392M446.088 413.104H354.784M446.088 413.104L457.879 385.479M537.392 413.104L545.253 385.479M537.392 413.104H628.696M478.657 336.798H559.104M478.657 336.798L487.858 315.241M478.657 336.798H398.209M478.657 336.798L468.696 360.134M559.104 336.798L565.238 315.241M559.104 336.798L552.465 360.134M559.104 336.798H639.553M487.858 315.241H565.238M487.858 315.241H410.477M487.858 315.241L496.383 295.267M565.238 315.241L570.922 295.267M565.238 315.241H642.619M511.683 259.42H581.122M511.683 259.42L518.574 243.275M511.683 259.42H442.244M511.683 259.42L504.304 276.708M581.122 259.42L585.716 243.275M581.122 259.42L576.203 276.708M581.122 259.42H650.561M518.574 243.275H585.716M518.574 243.275H451.432M518.574 243.275L525.023 228.164M585.716 243.275L590.016 228.164M585.716 243.275H652.858M536.758 200.67H597.838M536.758 200.67L542.111 188.128M536.758 200.67H475.677M536.758 200.67L531.073 213.991M597.838 200.67L601.407 188.128M597.838 200.67L594.048 213.991M597.838 200.67H658.919M542.111 188.128H601.407M542.111 188.128H482.815M542.111 188.128L547.16 176.297M601.407 188.128L604.774 176.297M601.407 188.128H660.704M556.445 154.544H610.964M556.445 154.544L560.723 144.52M556.445 154.544H501.927M556.445 154.544L551.931 165.121M610.964 154.544L613.815 144.52M610.964 154.544L607.954 165.121M610.964 154.544H665.482M560.723 144.52H613.815M560.723 144.52H507.631M560.723 144.52L564.783 135.008M613.815 144.52L616.522 135.008M613.815 144.52H666.908M572.312 117.368H621.541M572.312 117.368L575.809 109.174M572.312 117.368H523.083M572.312 117.368L568.642 125.969M621.541 117.368L623.873 109.174M621.541 117.368L619.094 125.969M621.541 117.368H670.771M575.809 109.174H623.873M575.809 109.174H527.746M575.809 109.174L577.079 106.201L579.145 101.36M623.873 109.174L626.097 101.36M623.873 109.174H671.937M585.373 86.7669H630.249M585.373 86.7669L588.285 79.9445M585.373 86.7669H540.497M585.373 86.7669L583.104 92.0857L582.329 93.8984M630.249 86.7669L630.987 84.1733L632.19 79.9445M630.249 86.7669L628.219 93.8984M630.249 86.7669H675.125M588.285 79.9445L588.64 79.1121L591.074 73.4106M588.285 79.9445H632.19M588.285 79.9445H544.38M632.19 79.9445L632.897 77.4613L633.129 76.6422L633.362 75.8282L634.049 73.4106M632.19 79.9445H676.095M596.311 61.139H637.541M596.311 61.139L597.555 58.2253L597.862 57.5063L598.167 56.7902L598.472 56.0785L598.774 55.3698M596.311 61.139H555.082M596.311 61.139L593.747 67.1475M637.541 61.139L638.778 56.7902L638.981 56.0785L639.182 55.3698M637.541 61.139L635.832 67.1475M637.541 61.139H678.771M598.774 55.3698H639.182M598.774 55.3698H558.365M598.774 55.3698L600.264 51.8791L600.557 51.191L601.14 49.8257M639.182 55.3698L640.176 51.8791L640.372 51.191L640.566 50.5065L640.76 49.8257M639.182 55.3698H679.592M605.606 39.3625H643.738M605.606 39.3625L607.716 34.4205M605.606 39.3625H567.474M605.606 39.3625L605.066 40.6269L604.247 42.547L603.416 44.4937M643.738 39.3625L643.558 39.9932L642.463 43.8416L642.277 44.4937M643.738 39.3625L645.144 34.4205M643.738 39.3625H681.869M607.716 34.4205H645.144M607.716 34.4205H570.288M607.716 34.4205L609.749 29.6573M645.144 34.4205L645.658 32.6137L645.827 32.0168L645.997 31.4229L646.499 29.6573M645.144 34.4205H682.572M613.602 20.6299H649.067M613.602 20.6299L614.978 17.4057L615.428 16.3488M613.602 20.6299H578.135M613.602 20.6299L612.899 22.2741L612.664 22.8268L612.426 23.3824L611.709 25.0634M649.067 20.6299L649.222 20.0868L649.529 19.0071L649.834 17.937L650.285 16.3488M649.067 20.6299L648.442 22.8268L648.285 23.3824L647.966 24.5004L647.806 25.0634M649.067 20.6299H684.534M615.428 16.3488H650.285M615.428 16.3488L616.976 12.722L617.194 12.2127M615.428 16.3488H580.571M650.285 16.3488L650.435 15.8241L650.584 15.3015L650.732 14.7812L650.879 14.2631L651.318 12.722L651.463 12.2127M650.285 16.3488H685.143M815.604 443.332H911.209M815.604 443.332L811.304 413.104M815.604 443.332H720M815.604 443.332L820.33 476.548M911.209 443.332L902.608 413.104M911.209 443.332L920.66 476.548M911.209 443.332H1006.81M811.304 413.104H902.608M811.304 413.104H720M811.304 413.104L807.374 385.479M902.608 413.104L894.747 385.479M902.608 413.104H993.912M800.447 336.798H880.896M800.447 336.798L797.381 315.241M800.447 336.798H720M800.447 336.798L803.768 360.134M880.896 336.798L874.762 315.241M880.896 336.798L887.536 360.134M880.896 336.798H961.343M797.381 315.241H874.762M797.381 315.241H720M797.381 315.241L794.539 295.267M874.762 315.241L869.078 295.267M874.762 315.241H952.142M789.439 259.42H858.878M789.439 259.42L787.142 243.275M789.439 259.42H720M789.439 259.42L791.899 276.708M858.878 259.42L854.284 243.275M858.878 259.42L863.797 276.708M858.878 259.42H928.317M787.142 243.275H854.284M787.142 243.275H720M787.142 243.275L784.992 228.164M854.284 243.275L849.985 228.164M854.284 243.275H921.426M781.081 200.67H842.162M781.081 200.67L779.296 188.128M781.081 200.67H720M781.081 200.67L782.976 213.991M842.162 200.67L838.593 188.128M842.162 200.67L845.952 213.991M842.162 200.67H903.242M779.296 188.128H838.593M779.296 188.128H720M779.296 188.128L777.613 176.297M838.593 188.128L835.226 176.297M838.593 188.128H897.889M774.518 154.544H829.036M774.518 154.544L773.092 144.52M774.518 154.544H720M774.518 154.544L776.023 165.121M829.036 154.544L826.185 144.52M829.036 154.544L832.046 165.121M829.036 154.544H883.555M773.092 144.52H826.185M773.092 144.52H720M773.092 144.52L771.739 135.008M826.185 144.52L823.478 135.008M826.185 144.52H879.277M769.229 117.368H818.459M769.229 117.368L768.063 109.174M769.229 117.368H720M769.229 117.368L770.453 125.969M818.459 117.368L816.127 109.174M818.459 117.368L820.906 125.969M818.459 117.368H867.688M768.063 109.174H816.127M768.063 109.174H720M768.063 109.174L766.952 101.36M816.127 109.174L813.903 101.36M816.127 109.174H864.191M764.875 86.7669H809.751M764.875 86.7669L763.905 79.9445M764.875 86.7669H720M764.875 86.7669L765.89 93.8984M809.751 86.7669L808.048 80.7813L807.81 79.9445M809.751 86.7669L811.781 93.8984M809.751 86.7669H854.627M763.905 79.9445L763.787 79.1121L762.975 73.4106M763.905 79.9445H807.81M763.905 79.9445H720M807.81 79.9445L807.103 77.4613L806.871 76.6422L806.638 75.8282L805.951 73.4106M807.81 79.9445H851.715M761.229 61.139H802.459M761.229 61.139L760.409 55.3698M761.229 61.139H720M761.229 61.139L761.546 63.3631L761.653 64.1124L761.759 64.8652L761.975 66.3828L762.085 67.1475M802.459 61.139L801.222 56.7902L800.817 55.3698M802.459 61.139L804.168 67.1475M802.459 61.139H843.689M760.409 55.3698H800.817M760.409 55.3698H720M760.409 55.3698L759.62 49.8257M800.817 55.3698L799.825 51.8791L799.628 51.191L799.434 50.5065L799.24 49.8257M800.817 55.3698H841.226M758.131 39.3625H796.262M758.131 39.3625L757.428 34.4205M758.131 39.3625H720M758.131 39.3625L758.861 44.4937M796.262 39.3625L796.442 39.9932L797.537 43.8416L797.723 44.4937M796.262 39.3625L794.856 34.4205M796.262 39.3625H834.394M757.428 34.4205H794.856M757.428 34.4205H720M757.428 34.4205L756.751 29.6573M794.856 34.4205L794.342 32.6137L794.173 32.0168L794.003 31.4229L793.501 29.6573M794.856 34.4205H832.284M755.467 20.6299H790.933M755.467 20.6299L754.857 16.3488M755.467 20.6299H720M755.467 20.6299L756.097 25.0634M790.933 20.6299L790.778 20.0868L790.47 19.0071L790.318 18.4706L790.015 17.4057L789.865 16.8758L789.714 16.3488M790.933 20.6299L791.558 22.8268L791.715 23.3824L792.034 24.5004L792.194 25.0634M790.933 20.6299H826.399M754.857 16.3488L754.783 15.8241L754.708 15.3015L754.634 14.7812L754.269 12.2127M754.857 16.3488H789.714M754.857 16.3488H720M789.714 16.3488H824.572M789.714 16.3488L789.416 15.3015L789.268 14.7812L789.121 14.2631L788.683 12.722L788.537 12.2127M1198.02 443.332H1293.63M1198.02 443.332L1176.52 413.104M1198.02 443.332H1102.42M1198.02 443.332L1221.65 476.548M1293.63 443.332L1267.82 413.104M1293.63 443.332L1321.98 476.548M1293.63 443.332H1389.23M1176.52 413.104H1267.82M1176.52 413.104H1085.22M1176.52 413.104L1156.87 385.479M1267.82 413.104L1244.24 385.479M1267.82 413.104H1359.13M1122.24 336.798H1202.69M1122.24 336.798L1106.9 315.241M1122.24 336.798H1041.79M1122.24 336.798L1138.84 360.134M1202.69 336.798L1184.29 315.241M1202.69 336.798L1222.61 360.134M1202.69 336.798H1283.13M1106.9 315.241H1184.29M1106.9 315.241H1029.52M1106.9 315.241L1092.7 295.267M1184.29 315.241L1167.23 295.267M1184.29 315.241H1261.67M1067.2 259.42H1136.63M1067.2 259.42L1055.71 243.275M1067.2 259.42H997.756M1067.2 259.42L1079.49 276.708M1136.63 259.42L1122.85 243.275M1136.63 259.42L1151.39 276.708M1136.63 259.42H1206.07M1055.71 243.275H1122.85M1055.71 243.275H988.568M1055.71 243.275L1044.96 228.164M1122.85 243.275L1109.95 228.164M1122.85 243.275H1189.99M1025.4 200.67H1086.48M1025.4 200.67L1016.48 188.128M1025.4 200.67H964.323M1025.4 200.67L1034.88 213.991M1086.48 200.67L1075.78 188.128M1086.48 200.67L1097.86 213.991M1086.48 200.67H1147.57M1016.48 188.128H1075.78M1016.48 188.128H957.185M1016.48 188.128L1008.07 176.297M1075.78 188.128L1065.68 176.297M1075.78 188.128H1135.07M992.591 154.544H1047.11M992.591 154.544L985.461 144.52M992.591 154.544H938.073M992.591 154.544L1000.12 165.121M1047.11 154.544L1038.55 144.52M1047.11 154.544L1056.14 165.121M1047.11 154.544H1101.63M985.461 144.52H1038.55M985.461 144.52H932.369M985.461 144.52L978.695 135.008M1038.55 144.52L1030.43 135.008M1038.55 144.52H1091.65M966.146 117.368H1015.38M966.146 117.368L960.318 109.174M966.146 117.368H916.917M966.146 117.368L972.265 125.969M1015.38 117.368L1008.38 109.174M1015.38 117.368L1022.72 125.969M1015.38 117.368H1064.6M960.318 109.174H1008.38M960.318 109.174H912.254M960.318 109.174L954.759 101.36M1008.38 109.174L1001.71 101.36M1008.38 109.174H1056.44M944.378 86.7669L945 87.6412L945.626 88.52L949.451 93.8984M944.378 86.7669H989.254M944.378 86.7669L939.525 79.9445M944.378 86.7669H899.503M989.254 86.7669L983.43 79.9445M989.254 86.7669L995.341 93.8984M989.254 86.7669H1034.13M939.525 79.9445H983.43M939.525 79.9445H895.62M939.525 79.9445L934.877 73.4106M983.43 79.9445L977.852 73.4106M983.43 79.9445H1027.33M926.147 61.139H967.377M926.147 61.139L922.043 55.3698M926.147 61.139H884.918M926.147 61.139L930.421 67.1475M967.377 61.139L964.275 57.5063L962.452 55.3698M967.377 61.139L972.506 67.1475M967.377 61.139H1008.61M922.043 55.3698H962.452M922.043 55.3698H881.635M922.043 55.3698L918.585 50.5065L918.1 49.8257M962.452 55.3698L957.72 49.8257M962.452 55.3698H1002.86M910.657 39.3625H948.788M910.657 39.3625L909.766 38.1092L907.141 34.4205M910.657 39.3625H872.526M910.657 39.3625L911.556 40.6269L913.382 43.1925L914.307 44.4937M948.788 39.3625L944.569 34.4205M948.788 39.3625L950.411 41.2642L951.506 42.547L953.168 44.4937M948.788 39.3625H986.919M907.141 34.4205H944.569M907.141 34.4205H869.712M907.141 34.4205L904.588 30.8312L903.752 29.6573M944.569 34.4205L943.027 32.6137L942.01 31.4229L940.503 29.6573M944.569 34.4205H981.997M897.331 20.6299H932.798M897.331 20.6299L895.415 17.937L894.286 16.3488M897.331 20.6299H861.865M897.331 20.6299L900.485 25.0634M932.798 20.6299L930.044 17.4057L929.593 16.8758L929.143 16.3488M932.798 20.6299L934.673 22.8268L936.582 25.0634M932.798 20.6299H968.263M894.286 16.3488H929.143M894.286 16.3488L892.802 14.2631L892.07 13.2334L891.706 12.722L891.344 12.2127M894.286 16.3488H859.429M929.143 16.3488H964M929.143 16.3488L925.612 12.2127M1416.43 315.241H1339.05M1416.43 315.241L1390.85 295.267M1416.43 315.241H1439.61M1416.43 315.241L1439.61 333.348M1344.95 259.42H1414.39M1344.95 259.42L1324.28 243.275M1344.95 259.42H1275.51M1344.95 259.42L1367.09 276.708M1414.39 259.42L1391.42 243.275M1414.39 259.42L1438.99 276.708M1414.39 259.42H1439.61M1324.28 243.275H1391.42M1324.28 243.275H1257.14M1324.28 243.275L1304.93 228.164M1391.42 243.275L1369.92 228.164M1391.42 243.275H1439.61M1269.73 200.67H1330.81M1269.73 200.67L1253.67 188.128M1269.73 200.67H1208.65M1269.73 200.67L1286.78 213.991M1330.81 200.67L1312.96 188.128M1330.81 200.67L1349.76 213.991M1330.81 200.67H1391.89M1253.67 188.128H1312.96M1253.67 188.128H1194.37M1253.67 188.128L1238.52 176.297M1312.96 188.128L1296.13 176.297M1312.96 188.128H1372.26M1210.66 154.544H1265.18M1210.66 154.544L1197.83 144.52M1210.66 154.544H1156.15M1210.66 154.544L1224.21 165.121M1265.18 154.544L1250.92 144.52M1265.18 154.544L1280.23 165.121M1265.18 154.544H1319.7M1197.83 144.52H1250.92M1197.83 144.52H1144.74M1197.83 144.52L1185.65 135.008M1250.92 144.52L1237.39 135.008M1250.92 144.52H1304.02M1163.06 117.368H1212.29M1163.06 117.368L1152.57 109.174M1163.06 117.368H1113.83M1163.06 117.368L1174.08 125.969M1212.29 117.368L1200.64 109.174M1212.29 117.368L1224.53 125.969M1212.29 117.368H1261.52M1152.57 109.174H1200.64M1152.57 109.174H1104.51M1152.57 109.174L1142.57 101.36M1200.64 109.174L1189.52 101.36M1200.64 109.174H1248.7M1123.88 86.7669H1168.76M1123.88 86.7669L1115.14 79.9445M1123.88 86.7669H1079M1123.88 86.7669L1133.01 93.8984M1168.76 86.7669L1159.05 79.9445M1168.76 86.7669L1178.9 93.8984M1168.76 86.7669H1213.63M1115.14 79.9445H1159.05M1115.14 79.9445H1071.24M1115.14 79.9445L1106.78 73.4106M1159.05 79.9445L1149.75 73.4106M1159.05 79.9445H1202.95M1091.07 61.139H1132.29M1091.07 61.139L1083.68 55.3698M1091.07 61.139H1049.84M1091.07 61.139L1098.76 67.1475M1132.29 61.139L1124.09 55.3698M1132.29 61.139L1140.84 67.1475M1132.29 61.139H1173.52M1083.68 55.3698H1124.09M1083.68 55.3698H1043.27M1083.68 55.3698L1076.58 49.8257M1124.09 55.3698L1116.2 49.8257M1124.09 55.3698H1164.5M1063.18 39.3625H1101.31M1063.18 39.3625L1056.85 34.4205M1063.18 39.3625H1025.05M1063.18 39.3625L1064.8 40.6269L1065.62 41.2642L1069.75 44.4937M1101.31 39.3625L1094.28 34.4205M1101.31 39.3625L1108.61 44.4937M1101.31 39.3625H1139.44M1056.85 34.4205H1094.28M1056.85 34.4205H1019.43M1056.85 34.4205L1050.75 29.6573M1094.28 34.4205L1087.51 29.6573M1094.28 34.4205H1131.71M1039.2 20.6299H1074.66M1039.2 20.6299L1033.71 16.3488M1039.2 20.6299H1003.73M1039.2 20.6299L1044.87 25.0634M1074.66 20.6299L1070.07 17.4057L1069.32 16.8758L1068.57 16.3488M1074.66 20.6299L1080.97 25.0634M1074.66 20.6299H1110.13M1033.71 16.3488H1068.57M1033.71 16.3488L1029.07 12.722L1028.42 12.2127M1033.71 16.3488H998.857M1068.57 16.3488H1103.43M1068.57 16.3488L1062.69 12.2127M1428.74 154.544L1410.2 144.52M1428.74 154.544H1374.22M1428.74 154.544L1439.61 160.423M1428.74 154.544H1439.61M1410.2 144.52H1357.11M1410.2 144.52L1392.61 135.008M1410.2 144.52H1439.61M1359.98 117.368H1409.21M1359.98 117.368L1344.83 109.174M1359.98 117.368H1310.75M1359.98 117.368L1375.89 125.969M1409.21 117.368L1392.89 109.174M1409.21 117.368L1426.34 125.969M1409.21 117.368H1439.61M1344.83 109.174H1392.89M1344.83 109.174H1296.76M1344.83 109.174L1330.37 101.36M1392.89 109.174L1377.32 101.36M1392.89 109.174H1439.61M1303.38 86.7669H1348.26M1303.38 86.7669L1290.76 79.9445M1303.38 86.7669H1258.51M1303.38 86.7669L1316.57 93.8984M1348.26 86.7669L1334.67 79.9445M1348.26 86.7669L1362.46 93.8984M1348.26 86.7669H1393.13M1290.76 79.9445H1334.67M1290.76 79.9445H1246.86M1290.76 79.9445L1278.68 73.4106M1334.67 79.9445L1321.66 73.4106M1334.67 79.9445H1378.57M1255.98 61.139H1297.21M1255.98 61.139L1245.31 55.3698M1255.98 61.139H1214.75M1255.98 61.139L1267.1 67.1475M1297.21 61.139L1285.72 55.3698M1297.21 61.139L1309.18 67.1475M1297.21 61.139H1338.44M1245.31 55.3698H1285.72M1245.31 55.3698H1204.9M1245.31 55.3698L1235.06 49.8257M1285.72 55.3698L1274.68 49.8257M1285.72 55.3698H1326.13M1215.71 39.3625H1253.84M1215.71 39.3625L1206.57 34.4205M1215.71 39.3625H1177.58M1215.71 39.3625L1225.2 44.4937M1253.84 39.3625L1243.99 34.4205M1253.84 39.3625L1264.06 44.4937M1253.84 39.3625H1291.97M1206.57 34.4205H1243.99M1206.57 34.4205H1169.14M1206.57 34.4205L1197.76 29.6573M1243.99 34.4205L1234.51 29.6573M1243.99 34.4205H1281.42M1181.06 20.6299H1216.53M1181.06 20.6299L1173.14 16.3488M1181.06 20.6299H1145.59M1181.06 20.6299L1189.26 25.0634M1216.53 20.6299L1208 16.3488M1216.53 20.6299L1225.36 25.0634M1216.53 20.6299H1251.99M1173.14 16.3488H1208M1173.14 16.3488L1165.49 12.2127M1173.14 16.3488H1138.29M1208 16.3488H1242.86M1208 16.3488L1199.76 12.2127M1420.9 61.139L1406.95 55.3698M1420.9 61.139H1379.67M1420.9 61.139L1435.43 67.1475M1420.9 61.139H1439.61M1406.95 55.3698H1366.54M1406.95 55.3698L1393.54 49.8257M1406.95 55.3698H1439.61M1368.23 39.3625H1406.36M1368.23 39.3625L1356.28 34.4205M1368.23 39.3625H1330.1M1368.23 39.3625L1380.64 44.4937M1406.36 39.3625L1393.71 34.4205M1406.36 39.3625L1419.5 44.4937M1406.36 39.3625H1439.61M1356.28 34.4205H1393.71M1356.28 34.4205H1318.85M1356.28 34.4205L1344.76 29.6573M1393.71 34.4205L1381.51 29.6573M1393.71 34.4205H1431.14M1322.93 20.6299H1358.39M1322.93 20.6299L1312.57 16.3488M1322.93 20.6299H1287.46M1322.93 20.6299L1333.65 25.0634M1358.39 20.6299L1347.43 16.3488M1358.39 20.6299L1369.74 25.0634M1358.39 20.6299H1393.86M1312.57 16.3488H1347.43M1312.57 16.3488L1302.57 12.2127M1312.57 16.3488H1277.71M1347.43 16.3488H1382.29M1347.43 16.3488L1336.84 12.2127M1369.74 25.0634L1381.51 29.6573M1369.74 25.0634H1405.84M1369.74 25.0634H1333.65M1393.86 20.6299L1382.29 16.3488M1393.86 20.6299L1405.84 25.0634M1393.86 20.6299H1429.32M1382.29 16.3488H1417.14M1382.29 16.3488L1371.1 12.2127M1336.84 12.2127H1302.57M1336.84 12.2127H1371.1M1336.84 12.2127L1326.6 8.21343M1405.84 25.0634L1418.26 29.6573M1405.84 25.0634H1439.61M1429.32 20.6299L1417.14 16.3488M1429.32 20.6299L1439.61 24.2454M1429.32 20.6299H1439.61M1417.14 16.3488L1405.37 12.2127M1417.14 16.3488H1439.61M1371.1 12.2127H1405.37M1371.1 12.2127L1360.29 8.21343M1405.37 12.2127L1393.99 8.21343M1405.37 12.2127H1439.61M1381.51 29.6573H1418.26M1381.51 29.6573H1344.76M1431.14 34.4205L1418.26 29.6573M1431.14 34.4205L1439.61 37.5558M1431.14 34.4205H1439.61M1418.26 29.6573H1439.61M1344.76 29.6573H1308.01M1344.76 29.6573L1333.65 25.0634M1333.65 25.0634H1297.55M1419.5 44.4937L1433.16 49.8257M1419.5 44.4937H1380.64M1419.5 44.4937H1439.61M1439.73 39.3625H1439.61M1433.16 49.8257H1393.54M1433.16 49.8257L1439.61 52.3457M1433.16 49.8257H1439.61M1393.54 49.8257H1353.92M1393.54 49.8257L1380.64 44.4937M1380.64 44.4937H1341.78M1225.36 25.0634L1234.51 29.6573M1225.36 25.0634H1261.45M1225.36 25.0634H1189.26M1251.99 20.6299L1242.86 16.3488M1251.99 20.6299L1261.45 25.0634M1251.99 20.6299H1287.46M1242.86 16.3488H1277.71M1242.86 16.3488L1234.03 12.2127M1199.76 12.2127H1234.03M1199.76 12.2127L1191.8 8.21343M1199.76 12.2127H1165.49M1261.45 25.0634L1271.26 29.6573M1261.45 25.0634H1297.55M1287.46 20.6299L1277.71 16.3488M1287.46 20.6299L1297.55 25.0634M1277.71 16.3488L1268.3 12.2127M1234.03 12.2127H1268.3M1234.03 12.2127L1225.5 8.21343M1297.55 25.0634L1308.01 29.6573M1302.57 12.2127H1268.3M1302.57 12.2127L1292.89 8.21343M1268.3 12.2127L1259.2 8.21343M1234.51 29.6573H1271.26M1234.51 29.6573H1197.76M1281.42 34.4205L1271.26 29.6573M1281.42 34.4205L1291.97 39.3625M1281.42 34.4205H1318.85M1271.26 29.6573H1308.01M1197.76 29.6573H1161.01M1197.76 29.6573L1189.26 25.0634M1308.01 29.6573L1318.85 34.4205M1189.26 25.0634H1153.16M1291.97 39.3625L1302.92 44.4937M1291.97 39.3625H1330.1M1318.85 34.4205L1330.1 39.3625M1330.1 39.3625L1341.78 44.4937M1264.06 44.4937L1274.68 49.8257M1264.06 44.4937H1302.92M1264.06 44.4937H1225.2M1302.92 44.4937L1314.3 49.8257M1302.92 44.4937H1341.78M1341.78 44.4937L1353.92 49.8257M1274.68 49.8257H1314.3M1274.68 49.8257H1235.06M1326.13 55.3698L1314.3 49.8257M1326.13 55.3698L1338.44 61.139M1326.13 55.3698H1366.54M1314.3 49.8257H1353.92M1235.06 49.8257H1195.44M1235.06 49.8257L1225.2 44.4937M1353.92 49.8257L1366.54 55.3698M1225.2 44.4937H1186.34M1338.44 61.139L1351.27 67.1475M1338.44 61.139H1379.67M1366.54 55.3698L1379.67 61.139M1379.67 61.139L1393.35 67.1475M1309.18 67.1475L1321.66 73.4106M1309.18 67.1475H1351.27M1309.18 67.1475H1267.1M1351.27 67.1475L1364.63 73.4106M1351.27 67.1475H1393.35M1393.35 67.1475L1407.61 73.4106M1393.35 67.1475H1435.43M1435.43 67.1475H1439.61M1435.43 67.1475L1439.61 68.875M1321.66 73.4106H1364.63M1321.66 73.4106H1278.68M1378.57 79.9445L1364.63 73.4106M1378.57 79.9445L1393.13 86.7669M1378.57 79.9445H1422.48M1364.63 73.4106H1407.61M1278.68 73.4106H1235.7M1278.68 73.4106L1267.1 67.1475M1407.61 73.4106L1422.48 79.9445M1407.61 73.4106H1439.61M1267.1 67.1475H1225.01M1393.13 86.7669L1408.35 93.8984M1393.13 86.7669H1438.01M1422.48 79.9445L1438.01 86.7669M1422.48 79.9445H1439.61M1439.84 73.4106H1439.61M1438.01 86.7669L1439.61 87.471M1438.01 86.7669H1439.61M1362.46 93.8984L1377.32 101.36M1362.46 93.8984H1408.35M1362.46 93.8984H1316.57M1408.35 93.8984L1424.28 101.36M1408.35 93.8984H1439.61M1440 87.6412L1439.61 87.471M1377.32 101.36H1424.28M1377.32 101.36H1330.37M1424.28 101.36H1439.61M1424.28 101.36L1439.61 108.546M1330.37 101.36H1283.42M1330.37 101.36L1316.57 93.8984M1316.57 93.8984H1270.68M1426.34 125.969H1375.89M1426.34 125.969L1439.61 132.632M1426.34 125.969H1439.61M1439.98 117.368H1439.61M1375.89 125.969H1325.43M1375.89 125.969L1392.61 135.008M1439.76 132.705L1439.61 132.632M1080.97 25.0634L1087.51 29.6573M1080.97 25.0634H1117.07M1080.97 25.0634H1044.87M1110.13 20.6299L1103.43 16.3488M1110.13 20.6299L1117.07 25.0634M1110.13 20.6299H1145.59M1103.43 16.3488H1138.29M1103.43 16.3488L1096.96 12.2127M1062.69 12.2127H1096.96M1062.69 12.2127L1060.53 10.6973L1057 8.21343M1062.69 12.2127H1028.42M1117.07 25.0634L1124.26 29.6573M1117.07 25.0634H1153.16M1145.59 20.6299L1138.29 16.3488M1145.59 20.6299L1153.16 25.0634M1138.29 16.3488L1131.22 12.2127M1096.96 12.2127H1131.22M1096.96 12.2127L1090.7 8.21343M1153.16 25.0634L1161.01 29.6573M1165.49 12.2127L1158.1 8.21343M1165.49 12.2127H1131.22M1131.22 12.2127L1130.36 11.7048L1128.64 10.6973L1124.4 8.21343M1087.51 29.6573H1124.26M1087.51 29.6573H1050.75M1131.71 34.4205L1124.26 29.6573M1131.71 34.4205L1139.44 39.3625M1131.71 34.4205H1169.14M1124.26 29.6573H1161.01M1050.75 29.6573H1014M1050.75 29.6573L1044.87 25.0634M1161.01 29.6573L1169.14 34.4205M1044.87 25.0634H1008.78M1139.44 39.3625L1147.48 44.4937M1139.44 39.3625H1177.58M1169.14 34.4205L1170.18 35.0277L1177.58 39.3625M1177.58 39.3625L1186.34 44.4937M1108.61 44.4937L1109.55 45.1494L1116.2 49.8257M1108.61 44.4937H1147.48M1108.61 44.4937H1069.75M1147.48 44.4937L1155.82 49.8257M1147.48 44.4937H1186.34M1186.34 44.4937L1195.44 49.8257M1116.2 49.8257H1155.82M1116.2 49.8257H1076.58M1164.5 55.3698L1155.82 49.8257M1164.5 55.3698L1173.52 61.139M1164.5 55.3698H1204.9M1155.82 49.8257H1195.44M1076.58 49.8257H1036.96M1076.58 49.8257L1069.75 44.4937M1195.44 49.8257L1204.9 55.3698M1069.75 44.4937H1030.89M1173.52 61.139L1182.93 67.1475M1173.52 61.139H1214.75M1204.9 55.3698L1214.75 61.139M1214.75 61.139L1225.01 67.1475M1140.84 67.1475L1149.75 73.4106M1140.84 67.1475H1182.93M1140.84 67.1475H1098.76M1182.93 67.1475L1192.73 73.4106M1182.93 67.1475H1225.01M1225.01 67.1475L1235.7 73.4106M1149.75 73.4106H1192.73M1149.75 73.4106H1106.78M1202.95 79.9445L1192.73 73.4106M1202.95 79.9445L1213.63 86.7669M1202.95 79.9445H1246.86M1192.73 73.4106H1235.7M1106.78 73.4106H1063.8M1106.78 73.4106L1098.76 67.1475M1235.7 73.4106L1246.86 79.9445M1098.76 67.1475H1056.67M1213.63 86.7669L1224.79 93.8984M1213.63 86.7669H1258.51M1246.86 79.9445L1258.51 86.7669M1258.51 86.7669L1270.68 93.8984M1178.9 93.8984L1189.52 101.36M1178.9 93.8984H1224.79M1178.9 93.8984H1133.01M1224.79 93.8984L1236.47 101.36M1224.79 93.8984H1270.68M1270.68 93.8984L1283.42 101.36M1189.52 101.36H1236.47M1189.52 101.36H1142.57M1248.7 109.174L1236.47 101.36M1248.7 109.174L1261.52 117.368M1248.7 109.174H1296.76M1236.47 101.36H1283.42M1142.57 101.36H1095.61M1142.57 101.36L1133.01 93.8984M1283.42 101.36L1296.76 109.174M1133.01 93.8984H1087.12M1261.52 117.368L1274.98 125.969M1261.52 117.368H1310.75M1296.76 109.174L1310.75 117.368M1310.75 117.368L1325.43 125.969M1224.53 125.969L1237.39 135.008M1224.53 125.969H1274.98M1224.53 125.969H1174.08M1274.98 125.969L1289.13 135.008M1274.98 125.969H1325.43M1325.43 125.969L1340.87 135.008M1237.39 135.008H1289.13M1237.39 135.008H1185.65M1304.02 144.52L1289.13 135.008M1304.02 144.52L1319.7 154.544M1304.02 144.52H1357.11M1289.13 135.008H1340.87M1185.65 135.008H1133.91M1185.65 135.008L1174.08 125.969M1340.87 135.008L1357.11 144.52M1340.87 135.008H1392.61M1174.08 125.969H1123.62M1319.7 154.544L1336.25 165.121M1319.7 154.544H1374.22M1357.11 144.52L1374.22 154.544M1392.61 135.008H1439.61M1374.22 154.544L1392.28 165.121M1280.23 165.121L1296.13 176.297M1280.23 165.121H1336.25M1280.23 165.121H1224.21M1336.25 165.121L1353.75 176.297M1336.25 165.121H1392.28M1392.28 165.121L1411.36 176.297M1392.28 165.121H1439.61M1296.13 176.297H1353.75M1296.13 176.297H1238.52M1372.26 188.128L1353.75 176.297M1372.26 188.128L1391.89 200.67M1372.26 188.128H1431.56M1353.75 176.297H1411.36M1238.52 176.297H1180.91M1238.52 176.297L1224.21 165.121M1411.36 176.297L1431.56 188.128M1411.36 176.297H1439.61M1224.21 165.121H1168.18M1391.89 200.67L1412.73 213.991M1391.89 200.67H1439.61M1431.56 188.128H1439.61M1431.56 188.128L1439.61 192.847M1349.76 213.991L1369.92 228.164M1349.76 213.991H1412.73M1349.76 213.991H1286.78M1412.73 213.991L1434.91 228.164M1412.73 213.991H1439.61M1369.92 228.164H1434.91M1369.92 228.164H1304.93M1434.91 228.164L1439.61 231.165M1434.91 228.164H1439.61M1304.93 228.164H1239.94M1304.93 228.164L1286.78 213.991M1286.78 213.991H1223.81M1438.99 276.708H1367.09M1438.99 276.708H1439.61M1438.99 276.708L1439.61 277.147M1367.09 276.708H1295.19M1367.09 276.708L1390.85 295.267M936.582 25.0634L938.036 26.7664L938.525 27.3397L940.503 29.6573M936.582 25.0634H972.679M936.582 25.0634H900.485M968.263 20.6299L965.052 17.4057L964 16.3488M968.263 20.6299L972.119 24.5004L972.679 25.0634M968.263 20.6299H1003.73M964 16.3488H998.857M964 16.3488L959.881 12.2127M925.612 12.2127H959.881M925.612 12.2127L924.318 10.6973L922.198 8.21343M925.612 12.2127H891.344M972.679 25.0634L973.807 26.196L977.254 29.6573M972.679 25.0634H1008.78M1003.73 20.6299L998.857 16.3488M1003.73 20.6299L1008.78 25.0634M998.857 16.3488L995.311 13.2334L994.149 12.2127M959.881 12.2127H994.149M959.881 12.2127L955.898 8.21343M1008.78 25.0634L1014 29.6573M1028.42 12.2127L1027.77 11.7048L1023.3 8.21343M1028.42 12.2127H994.149M994.149 12.2127L992.424 10.6973L989.598 8.21343M940.503 29.6573H977.254M940.503 29.6573H903.752M981.997 34.4205L977.254 29.6573M981.997 34.4205L986.919 39.3625M981.997 34.4205H1019.43M977.254 29.6573H1014M903.752 29.6573H867.002M903.752 29.6573L900.485 25.0634M1014 29.6573L1019.43 34.4205M900.485 25.0634H864.388M986.919 39.3625L990.09 42.547L990.734 43.1925L992.029 44.4937M986.919 39.3625H1025.05M1019.43 34.4205L1025.05 39.3625M1025.05 39.3625L1030.89 44.4937M953.168 44.4937L957.72 49.8257M953.168 44.4937H992.029M953.168 44.4937H914.307M992.029 44.4937L997.339 49.8257M992.029 44.4937H1030.89M1030.89 44.4937L1036.96 49.8257M957.72 49.8257H997.339M957.72 49.8257H918.1M1002.86 55.3698L999.384 51.8791L998.7 51.191L997.339 49.8257M1002.86 55.3698L1008.61 61.139M1002.86 55.3698H1043.27M997.339 49.8257H1036.96M918.1 49.8257H878.48M918.1 49.8257L914.307 44.4937M1036.96 49.8257L1043.27 55.3698M914.307 44.4937H875.445M1008.61 61.139L1014.59 67.1475M1008.61 61.139H1049.84M1043.27 55.3698L1049.84 61.139M1049.84 61.139L1056.67 67.1475M972.506 67.1475L975.151 70.2459L975.821 71.0312L977.852 73.4106M972.506 67.1475H1014.59M972.506 67.1475H930.421M1014.59 67.1475L1020.83 73.4106M1014.59 67.1475H1056.67M1056.67 67.1475L1063.8 73.4106M977.852 73.4106H1020.83M977.852 73.4106H934.877M1027.33 79.9445L1020.83 73.4106M1027.33 79.9445L1034.13 86.7669M1027.33 79.9445H1071.24M1020.83 73.4106H1063.8M934.877 73.4106H891.901M934.877 73.4106L933.745 71.8201L930.421 67.1475M1063.8 73.4106L1071.24 79.9445M930.421 67.1475H888.338M1034.13 86.7669L1041.23 93.8984M1034.13 86.7669H1079M1071.24 79.9445L1079 86.7669M1079 86.7669L1087.12 93.8984M995.341 93.8984L1001.71 101.36M995.341 93.8984H1041.23M995.341 93.8984H949.451M1041.23 93.8984L1048.66 101.36M1041.23 93.8984H1087.12M1087.12 93.8984L1095.61 101.36M1001.71 101.36H1048.66M1001.71 101.36H954.759M1056.44 109.174L1048.66 101.36M1056.44 109.174L1064.6 117.368M1056.44 109.174H1104.51M1048.66 101.36H1095.61M954.759 101.36H907.807M954.759 101.36L949.451 93.8984M1095.61 101.36L1104.51 109.174M949.451 93.8984H903.561M1064.6 117.368L1073.17 125.969M1064.6 117.368H1113.83M1104.51 109.174L1113.83 117.368M1113.83 117.368L1123.62 125.969M1022.72 125.969L1030.43 135.008M1022.72 125.969H1073.17M1022.72 125.969H972.265M1073.17 125.969L1082.17 135.008M1073.17 125.969H1123.62M1123.62 125.969L1133.91 135.008M1030.43 135.008H1082.17M1030.43 135.008H978.695M1091.65 144.52L1082.17 135.008M1091.65 144.52L1101.63 154.544M1091.65 144.52H1144.74M1082.17 135.008H1133.91M978.695 135.008H926.956M978.695 135.008L972.265 125.969M1133.91 135.008L1144.74 144.52M972.265 125.969H921.812M1101.63 154.544L1112.16 165.121M1101.63 154.544H1156.15M1144.74 144.52L1156.15 154.544M1156.15 154.544L1168.18 165.121M1056.14 165.121L1065.68 176.297M1056.14 165.121H1112.16M1056.14 165.121H1000.12M1112.16 165.121L1123.29 176.297M1112.16 165.121H1168.18M1168.18 165.121L1180.91 176.297M1065.68 176.297H1123.29M1065.68 176.297H1008.07M1135.07 188.128L1123.29 176.297M1135.07 188.128L1147.57 200.67M1135.07 188.128H1194.37M1123.29 176.297H1180.91M1008.07 176.297H950.453M1008.07 176.297L1000.12 165.121M1180.91 176.297L1194.37 188.128M1000.12 165.121H944.093M1147.57 200.67L1160.83 213.991M1147.57 200.67H1208.65M1194.37 188.128L1208.65 200.67M1208.65 200.67L1223.81 213.991M1097.86 213.991L1109.95 228.164M1097.86 213.991H1160.83M1097.86 213.991H1034.88M1160.83 213.991L1174.95 228.164M1160.83 213.991H1223.81M1223.81 213.991L1239.94 228.164M1109.95 228.164H1174.95M1109.95 228.164H1044.96M1189.99 243.275L1174.95 228.164M1189.99 243.275L1206.07 259.42M1189.99 243.275H1257.14M1174.95 228.164H1239.94M1044.96 228.164H979.969M1044.96 228.164L1034.88 213.991M1239.94 228.164L1257.14 243.275M1034.88 213.991H971.903M1206.07 259.42L1223.29 276.708M1206.07 259.42H1275.51M1257.14 243.275L1275.51 259.42M1275.51 259.42L1295.19 276.708M1151.39 276.708L1167.23 295.267M1151.39 276.708H1223.29M1151.39 276.708H1079.49M1223.29 276.708L1241.77 295.267M1223.29 276.708H1295.19M1295.19 276.708L1316.31 295.267M1167.23 295.267H1241.77M1167.23 295.267H1092.7M1261.67 315.241L1241.77 295.267M1261.67 315.241L1283.13 336.798M1261.67 315.241H1339.05M1241.77 295.267H1316.31M1092.7 295.267H1018.16M1092.7 295.267L1079.49 276.708M1316.31 295.267L1339.05 315.241M1316.31 295.267H1390.85M1079.49 276.708H1007.6M1283.13 336.798L1306.37 360.134M1283.13 336.798H1363.58M1339.05 315.241L1363.58 336.798M1390.85 295.267H1439.61M1363.58 336.798L1390.14 360.134M1363.58 336.798H1439.61M1222.61 360.134L1244.24 385.479M1222.61 360.134H1306.37M1222.61 360.134H1138.84M1306.37 360.134L1331.62 385.479M1306.37 360.134H1390.14M1390.14 360.134L1418.99 385.479M1390.14 360.134H1439.61M1244.24 385.479H1331.62M1244.24 385.479H1156.87M1359.13 413.104L1331.62 385.479M1359.13 413.104L1389.23 443.332M1359.13 413.104H1439.61M1331.62 385.479H1418.99M1156.87 385.479H1069.49M1156.87 385.479L1138.84 360.134M1418.99 385.479H1439.61M1418.99 385.479L1439.61 403.599M1138.84 360.134H1055.07M1389.23 443.332L1422.31 476.548M1389.23 443.332H1439.61M1321.98 476.548L1353.28 513.219M1321.98 476.548H1422.31M1321.98 476.548H1221.65M1422.31 476.548L1439.61 493.921M1422.31 476.548H1439.61M1353.28 513.219H1247.74M1353.28 513.219L1439.61 513.219M1247.74 513.219H1142.19M1247.74 513.219L1221.65 476.548M1221.65 476.548H1121.32M792.194 25.0634L792.355 25.6286L792.516 26.196L792.679 26.7664L792.841 27.3397L793.335 29.0737L793.501 29.6573M792.194 25.0634H828.291M792.194 25.0634H756.097M826.399 20.6299L825.022 17.4057L824.572 16.3488M826.399 20.6299L827.574 23.3824L828.291 25.0634M826.399 20.6299H861.865M824.572 16.3488H859.429M824.572 16.3488L823.242 13.2334L822.806 12.2127M788.537 12.2127L788.393 11.7048L787.822 9.69713L787.399 8.21343M788.537 12.2127H822.806M788.537 12.2127H754.269M828.291 25.0634L828.532 25.6286L828.775 26.196L829.018 26.7664L829.263 27.3397L830.251 29.6573M828.291 25.0634H864.388M861.865 20.6299L860.03 17.4057L859.429 16.3488M861.865 20.6299L864.388 25.0634M859.429 16.3488L858.241 14.2631L857.364 12.722L857.075 12.2127M822.806 12.2127L822.59 11.7048L822.16 10.6973L821.732 9.69713L821.521 9.20036L821.099 8.21343M822.806 12.2127H857.075M864.388 25.0634L866.34 28.493L867.002 29.6573M891.344 12.2127L889.201 9.20036L888.499 8.21343M891.344 12.2127H857.075M857.075 12.2127L855.08 8.70579L854.798 8.21343M793.501 29.6573H830.251M793.501 29.6573H756.751M832.284 34.4205L830.251 29.6573M832.284 34.4205L834.394 39.3625M832.284 34.4205H869.712M830.251 29.6573H867.002M756.751 29.6573H720M756.751 29.6573L756.097 25.0634M867.002 29.6573L869.712 34.4205M756.097 25.0634H720M834.394 39.3625L834.934 40.6269L835.753 42.547L836.584 44.4937M834.394 39.3625H872.526M869.712 34.4205L870.059 35.0277L872.526 39.3625M872.526 39.3625L872.884 39.9932L873.245 40.6269L873.607 41.2642L875.445 44.4937M797.723 44.4937L799.24 49.8257M797.723 44.4937H836.584M797.723 44.4937H758.861M836.584 44.4937L838.86 49.8257M836.584 44.4937H875.445M875.445 44.4937L877.71 48.473L878.094 49.1479L878.48 49.8257M799.24 49.8257H838.86M799.24 49.8257H759.62M841.226 55.3698L841.528 56.0785L841.833 56.7902L842.138 57.5063L843.689 61.139M841.226 55.3698L840.031 52.5702L839.736 51.8791L839.443 51.191L838.86 49.8257M841.226 55.3698H881.635M838.86 49.8257H878.48M759.62 49.8257H720M759.62 49.8257L758.861 44.4937M878.48 49.8257L881.635 55.3698M758.861 44.4937H720M843.689 61.139L845.927 66.3828L846.253 67.1475M843.689 61.139H884.918M881.635 55.3698L882.444 56.7902L884.918 61.139M884.918 61.139L886.184 63.3631L888.338 67.1475M804.168 67.1475L805.051 70.2459L805.273 71.0312L805.951 73.4106M804.168 67.1475H846.253M804.168 67.1475H762.085M846.253 67.1475L848.926 73.4106M846.253 67.1475H888.338M888.338 67.1475L891.901 73.4106M805.951 73.4106H848.926M805.951 73.4106H762.975M851.715 79.9445L848.926 73.4106M851.715 79.9445L854.627 86.7669M851.715 79.9445H895.62M848.926 73.4106H891.901M762.975 73.4106H720M762.975 73.4106L762.749 71.8201L762.304 68.6886L762.085 67.1475M891.901 73.4106L895.62 79.9445M762.085 67.1475H720M854.627 86.7669L856.897 92.0857L857.671 93.8984M854.627 86.7669H899.503M895.62 79.9445L899.503 86.7669M899.503 86.7669L901.509 90.2929L903.561 93.8984M811.781 93.8984L813.903 101.36M811.781 93.8984H857.671M811.781 93.8984H765.89M857.671 93.8984L860.855 101.36M857.671 93.8984H903.561M903.561 93.8984L907.807 101.36M813.903 101.36H860.855M813.903 101.36H766.952M864.191 109.174L863.342 107.186L860.855 101.36M864.191 109.174L867.688 117.368M864.191 109.174H912.254M860.855 101.36H907.807M766.952 101.36H720M766.952 101.36L765.89 93.8984M907.807 101.36L912.254 109.174M765.89 93.8984H720M867.688 117.368L871.359 125.969M867.688 117.368H916.917M912.254 109.174L916.917 117.368M916.917 117.368L921.812 125.969M820.906 125.969L823.478 135.008M820.906 125.969H871.359M820.906 125.969H770.453M871.359 125.969L875.217 135.008M871.359 125.969H921.812M921.812 125.969L926.956 135.008M823.478 135.008H875.217M823.478 135.008H771.739M879.277 144.52L875.217 135.008M879.277 144.52L883.555 154.544M879.277 144.52H932.369M875.217 135.008H926.956M771.739 135.008H720M771.739 135.008L770.61 127.074L770.453 125.969M926.956 135.008L932.369 144.52M770.453 125.969H720M883.555 154.544L888.069 165.121M883.555 154.544H938.073M932.369 144.52L936.618 151.988L938.073 154.544M938.073 154.544L944.093 165.121M832.046 165.121L835.226 176.297M832.046 165.121H888.069M832.046 165.121H776.023M888.069 165.121L892.84 176.297M888.069 165.121H944.093M944.093 165.121L950.453 176.297M835.226 176.297H892.84M835.226 176.297H777.613M897.889 188.128L892.84 176.297M897.889 188.128L903.242 200.67M897.889 188.128H957.185M892.84 176.297H950.453M777.613 176.297H720M777.613 176.297L776.023 165.121M950.453 176.297L957.185 188.128M776.023 165.121H720M903.242 200.67L908.927 213.991M903.242 200.67H964.323M957.185 188.128L964.323 200.67M964.323 200.67L971.903 213.991M845.952 213.991L849.985 228.164M845.952 213.991H908.927M845.952 213.991H782.976M908.927 213.991L914.977 228.164M908.927 213.991H971.903M971.903 213.991L979.969 228.164M849.985 228.164H914.977M849.985 228.164H784.992M921.426 243.275L914.977 228.164M921.426 243.275L928.317 259.42M921.426 243.275H988.568M914.977 228.164H979.969M784.992 228.164H720M784.992 228.164L782.976 213.991M979.969 228.164L988.568 243.275M782.976 213.991H720M928.317 259.42L935.696 276.708M928.317 259.42H997.756M988.568 243.275L997.756 259.42M997.756 259.42L1007.6 276.708M863.797 276.708L869.078 295.267M863.797 276.708H935.696M863.797 276.708H791.899M935.696 276.708L943.617 295.267M935.696 276.708H1007.6M1007.6 276.708L1018.16 295.267M869.078 295.267H943.617M869.078 295.267H794.539M952.142 315.241L943.617 295.267M952.142 315.241L961.343 336.798M952.142 315.241H1029.52M943.617 295.267H1018.16M794.539 295.267H720M794.539 295.267L791.899 276.708M1018.16 295.267L1029.52 315.241M791.899 276.708H720M961.343 336.798L971.304 360.134M961.343 336.798H1041.79M1029.52 315.241L1041.79 336.798M1041.79 336.798L1055.07 360.134M887.536 360.134L894.747 385.479M887.536 360.134H971.304M887.536 360.134H803.768M971.304 360.134L982.121 385.479M971.304 360.134H1055.07M1055.07 360.134L1069.49 385.479M894.747 385.479H982.121M894.747 385.479H807.374M993.912 413.104L982.121 385.479M993.912 413.104L1006.81 443.332M993.912 413.104H1085.22M982.121 385.479H1069.49M807.374 385.479H720M807.374 385.479L803.768 360.134M1069.49 385.479L1085.22 413.104M803.768 360.134H720M1006.81 443.332L1020.99 476.548M1006.81 443.332H1102.42M1085.22 413.104L1102.42 443.332M1102.42 443.332L1121.32 476.548M920.66 476.548L931.095 513.219M920.66 476.548H1020.99M920.66 476.548H820.33M1020.99 476.548L1036.64 513.219M1020.99 476.548H1121.32M1121.32 476.548L1142.19 513.219M1036.64 513.219H931.095M1036.64 513.219H1142.19M931.095 513.219H825.548M825.548 513.219H720M825.548 513.219L820.33 476.548M820.33 476.548H720M647.806 25.0634L647.645 25.6286L647.484 26.196L647.321 26.7664L647.159 27.3397L646.83 28.493L646.665 29.0737L646.499 29.6573M647.806 25.0634H683.903M647.806 25.0634H611.709M684.534 20.6299L685.143 16.3488M684.534 20.6299L683.903 25.0634M684.534 20.6299H720M685.143 16.3488L685.217 15.8241L685.292 15.3015L685.366 14.7812L685.732 12.2127M685.143 16.3488H720M651.463 12.2127L651.607 11.7048L652.178 9.69713L652.601 8.21343M651.463 12.2127H685.732M651.463 12.2127H617.194M683.903 25.0634L683.822 25.6286L683.742 26.196L683.66 26.7664L683.25 29.6573M683.903 25.0634H720M720 20.6299V16.3488M720 20.6299V25.0634M720 16.3488V12.2127M685.732 12.2127H720M685.732 12.2127L685.947 10.6973L686.019 10.1961L686.3 8.21343M720 25.0634V29.6573M754.269 12.2127L754.054 10.6973L753.982 10.1961L753.911 9.69713L753.84 9.20036L753.77 8.70579L753.7 8.21343M754.269 12.2127H720M720 12.2127V8.21343M646.499 29.6573H683.25M646.499 29.6573H609.749M682.572 34.4205L682.485 35.0277L682.399 35.6385L681.869 39.3625M682.572 34.4205L683.25 29.6573M682.572 34.4205H720M683.25 29.6573H720M609.749 29.6573H572.998M609.749 29.6573L610.245 28.493L610.492 27.9153L610.737 27.3397L610.983 26.7664L611.225 26.196L611.468 25.6286L611.709 25.0634M720 29.6573V34.4205M611.709 25.0634H575.612M681.869 39.3625L681.139 44.4937M681.869 39.3625H720M720 34.4205V39.3625M720 39.3625V44.4937M642.277 44.4937L640.76 49.8257M642.277 44.4937H681.139M642.277 44.4937H603.416M681.139 44.4937L680.38 49.8257M681.139 44.4937H720M720 44.4937V49.8257M640.76 49.8257H680.38M640.76 49.8257H601.14M679.592 55.3698L680.38 49.8257M679.592 55.3698L678.771 61.139M679.592 55.3698H720M680.38 49.8257H720M601.14 49.8257H561.52M601.14 49.8257L603.416 44.4937M720 49.8257V55.3698M603.416 44.4937H564.555M678.771 61.139L678.454 63.3631L678.133 65.6218L677.915 67.1475M678.771 61.139H720M720 55.3698V61.139M720 61.139V67.1475M635.832 67.1475L634.949 70.2459L634.727 71.0312L634.049 73.4106M635.832 67.1475H677.915M635.832 67.1475H593.747M677.915 67.1475L677.697 68.6886L677.251 71.8201L677.025 73.4106M677.915 67.1475H720M720 67.1475V73.4106M634.049 73.4106H677.025M634.049 73.4106H591.074M676.095 79.9445L676.213 79.1121L677.025 73.4106M676.095 79.9445L675.125 86.7669M676.095 79.9445H720M677.025 73.4106H720M591.074 73.4106H548.099M591.074 73.4106L593.747 67.1475M720 73.4106V79.9445M593.747 67.1475H551.662M675.125 86.7669L674.11 93.8984M675.125 86.7669H720M720 79.9445V86.7669M720 86.7669V93.8984M628.219 93.8984L626.097 101.36M628.219 93.8984H674.11M628.219 93.8984H582.329M674.11 93.8984L673.048 101.36M674.11 93.8984H720M720 93.8984V101.36M626.097 101.36H673.048M626.097 101.36H579.145M671.937 109.174L673.048 101.36M671.937 109.174L670.771 117.368M671.937 109.174H720M673.048 101.36H720M579.145 101.36H532.193M579.145 101.36L582.329 93.8984M720 101.36V109.174M582.329 93.8984H536.439M670.771 117.368L669.547 125.969M670.771 117.368H720M720 109.174V117.368M720 117.368V125.969M619.094 125.969L616.522 135.008M619.094 125.969H669.547M619.094 125.969H568.642M669.547 125.969L668.261 135.008M669.547 125.969H720M720 125.969V135.008M616.522 135.008H668.261M616.522 135.008H564.783M666.908 144.52L668.261 135.008M666.908 144.52L665.482 154.544M666.908 144.52H720M668.261 135.008H720M564.783 135.008H513.044M564.783 135.008L568.642 125.969M720 135.008V144.52M568.642 125.969H518.188M665.482 154.544L663.977 165.121M665.482 154.544H720M720 144.52V154.544M720 154.544V165.121M607.954 165.121L604.774 176.297M607.954 165.121H663.977M607.954 165.121H551.931M663.977 165.121L662.387 176.297M663.977 165.121H720M720 165.121V176.297M604.774 176.297H662.387M604.774 176.297H547.16M660.704 188.128L662.387 176.297M660.704 188.128L658.919 200.67M660.704 188.128H720M662.387 176.297H720M547.16 176.297H489.547M547.16 176.297L551.931 165.121M720 176.297V188.128M551.931 165.121H495.907M658.919 200.67L657.024 213.991M658.919 200.67H720M720 188.128V200.67M720 200.67V213.991M594.048 213.991L590.016 228.164M594.048 213.991H657.024M594.048 213.991H531.073M657.024 213.991L655.008 228.164M657.024 213.991H720M720 213.991V228.164M590.016 228.164H655.008M590.016 228.164H525.023M652.858 243.275L655.008 228.164M652.858 243.275L650.561 259.42M652.858 243.275H720M655.008 228.164H720M525.023 228.164H460.031M525.023 228.164L531.073 213.991M720 228.164V243.275M531.073 213.991H468.097M650.561 259.42L648.101 276.708M650.561 259.42H720M720 243.275V259.42M720 259.42V276.708M576.203 276.708L570.922 295.267M576.203 276.708H648.101M576.203 276.708H504.304M648.101 276.708L645.461 295.267M648.101 276.708H720M720 276.708V295.267M570.922 295.267H645.461M570.922 295.267H496.383M642.619 315.241L645.461 295.267M642.619 315.241L639.553 336.798M642.619 315.241H720M645.461 295.267H720M496.383 295.267H421.844M496.383 295.267L504.304 276.708M720 295.267V315.241M504.304 276.708H432.405M639.553 336.798L636.232 360.134M639.553 336.798H720M720 315.241V336.798M720 336.798V360.134M552.465 360.134L545.253 385.479M552.465 360.134H636.232M552.465 360.134H468.696M636.232 360.134L632.626 385.479M636.232 360.134H720M720 360.134V385.479M545.253 385.479H632.626M545.253 385.479H457.879M628.696 413.104L632.626 385.479M628.696 413.104L624.396 443.332M628.696 413.104H720M632.626 385.479H720M457.879 385.479H370.505M457.879 385.479L468.696 360.134M720 385.479V413.104M468.696 360.134H384.929M624.396 443.332L619.67 476.548M624.396 443.332H720M720 413.104V443.332M720 443.332V476.548M519.34 476.548L508.905 513.219M519.34 476.548H619.67M519.34 476.548H419.009M619.67 476.548L614.452 513.219M619.67 476.548H720M720 476.548V513.219M614.452 513.219H508.905M614.452 513.219H720M508.905 513.219H403.358M403.358 513.219H297.81M403.358 513.219L419.009 476.548M419.009 476.548H318.679M503.418 25.0634L501.475 27.3397L499.497 29.6573M503.418 25.0634H539.515M503.418 25.0634H467.322M542.669 20.6299L545.714 16.3488M542.669 20.6299L539.515 25.0634M542.669 20.6299H578.135M545.714 16.3488H580.571M545.714 16.3488L547.93 13.2334L548.657 12.2127M514.388 12.2127H548.657M514.388 12.2127L515.682 10.6973L517.802 8.21343M514.388 12.2127H480.119M539.515 25.0634L536.248 29.6573M539.515 25.0634H575.612M578.135 20.6299L580.571 16.3488M578.135 20.6299L575.612 25.0634M580.571 16.3488L581.759 14.2631L582.636 12.722L582.925 12.2127M548.657 12.2127H582.925M548.657 12.2127L550.799 9.20036L551.501 8.21343M575.612 25.0634L573.66 28.493L572.998 29.6573M617.194 12.2127L617.41 11.7048L617.841 10.6973L618.479 9.20036L618.901 8.21343M617.194 12.2127H582.925M582.925 12.2127L583.214 11.7048L583.788 10.6973L585.201 8.21343M499.497 29.6573H536.248M499.497 29.6573H462.746M532.859 34.4205L533.29 33.8155L533.718 33.2128L535.412 30.8312L536.248 29.6573M532.859 34.4205L530.235 38.1092L529.343 39.3625M532.859 34.4205H570.288M536.248 29.6573H572.998M462.746 29.6573H425.996M462.746 29.6573L466.193 26.196L467.322 25.0634M572.998 29.6573L570.288 34.4205M467.322 25.0634H431.224M529.343 39.3625L528.895 39.9932L528.444 40.6269L527.079 42.547L526.618 43.1925L525.693 44.4937M529.343 39.3625H567.474M570.288 34.4205L569.941 35.0277L567.474 39.3625M567.474 39.3625L567.116 39.9932L566.755 40.6269L566.393 41.2642L564.555 44.4937M486.832 44.4937L482.281 49.8257M486.832 44.4937H525.693M486.832 44.4937H447.971M525.693 44.4937L521.9 49.8257M525.693 44.4937H564.555M564.555 44.4937L561.52 49.8257M482.281 49.8257H521.9M482.281 49.8257H442.661M517.957 55.3698L521.9 49.8257M517.957 55.3698L513.853 61.139M517.957 55.3698H558.365M521.9 49.8257H561.52M442.661 49.8257H403.041M442.661 49.8257L447.971 44.4937M561.52 49.8257L558.365 55.3698M447.971 44.4937H409.109M513.853 61.139L509.579 67.1475M513.853 61.139H555.082M558.365 55.3698L557.557 56.7902L555.082 61.139M555.082 61.139L553.816 63.3631L552.53 65.6218L551.662 67.1475M467.494 67.1475L464.849 70.2459L462.148 73.4106M467.494 67.1475H509.579M467.494 67.1475H425.409M509.579 67.1475L505.123 73.4106M509.579 67.1475H551.662M551.662 67.1475L548.099 73.4106M462.148 73.4106H505.123M462.148 73.4106H419.173M500.476 79.9445L505.123 73.4106M500.476 79.9445L495.622 86.7669M500.476 79.9445H544.38M505.123 73.4106H548.099M419.173 73.4106H376.197M419.173 73.4106L425.409 67.1475M548.099 73.4106L544.38 79.9445M425.409 67.1475H383.326M495.622 86.7669L494.375 88.52L490.549 93.8984M495.622 86.7669H540.497M544.38 79.9445L540.497 86.7669M540.497 86.7669L540 87.6412L538.491 90.2929L536.439 93.8984M444.659 93.8984L438.29 101.36M444.659 93.8984H490.549M444.659 93.8984H398.769M490.549 93.8984L485.241 101.36M490.549 93.8984H536.439M536.439 93.8984L532.193 101.36M438.29 101.36H485.241M438.29 101.36H391.338M479.682 109.174L483.188 104.248L485.241 101.36M479.682 109.174L473.854 117.368M479.682 109.174H527.746M485.241 101.36H532.193M391.338 101.36H344.386M391.338 101.36L398.769 93.8984M532.193 101.36L527.746 109.174M398.769 93.8984H352.878M473.854 117.368L467.735 125.969M473.854 117.368H523.083M527.746 109.174L523.083 117.368M523.083 117.368L518.188 125.969M417.282 125.969L409.566 135.008M417.282 125.969H467.735M417.282 125.969H366.83M467.735 125.969L461.305 135.008M467.735 125.969H518.188M518.188 125.969L513.044 135.008M409.566 135.008H461.305M409.566 135.008H357.827M454.539 144.52L461.305 135.008M454.539 144.52L447.409 154.544M454.539 144.52H507.631M461.305 135.008H513.044M357.827 135.008H306.089M357.827 135.008L366.83 125.969M513.044 135.008L507.631 144.52M366.83 125.969H316.377M447.409 154.544L439.885 165.121M447.409 154.544H501.927M507.631 144.52L501.927 154.544M501.927 154.544L495.907 165.121M383.862 165.121L374.321 176.297M383.862 165.121H439.885M383.862 165.121H327.838M439.885 165.121L431.934 176.297M439.885 165.121H495.907M495.907 165.121L489.547 176.297M374.321 176.297H431.934M374.321 176.297H316.707M423.518 188.128L431.934 176.297M423.518 188.128L414.597 200.67M423.518 188.128H482.815M431.934 176.297H489.547M316.707 176.297H259.094M316.707 176.297L327.838 165.121M489.547 176.297L482.815 188.128M327.838 165.121H271.816M414.597 200.67L405.121 213.991M414.597 200.67H475.677M482.815 188.128L475.677 200.67M475.677 200.67L468.097 213.991M342.145 213.991L330.047 228.164M342.145 213.991H405.121M342.145 213.991H279.169M405.121 213.991L395.039 228.164M405.121 213.991H468.097M468.097 213.991L460.031 228.164M330.047 228.164H395.039M330.047 228.164H265.054M384.29 243.275L395.039 228.164M384.29 243.275L372.804 259.42M384.29 243.275H451.432M395.039 228.164H460.031M265.054 228.164H200.062M265.054 228.164L279.169 213.991M460.031 228.164L451.432 243.275M279.169 213.991H216.193M372.804 259.42L360.506 276.708M372.804 259.42H442.244M451.432 243.275L442.244 259.42M442.244 259.42L432.405 276.708M288.607 276.708L272.765 295.267M288.607 276.708H360.506M288.607 276.708H216.708M360.506 276.708L347.304 295.267M360.506 276.708H432.405M432.405 276.708L421.844 295.267M272.765 295.267H347.304M272.765 295.267H198.226M333.096 315.241L347.304 295.267M333.096 315.241L317.761 336.798M333.096 315.241H410.477M347.304 295.267H421.844M198.226 295.267H123.687M198.226 295.267L216.708 276.708M421.844 295.267L410.477 315.241M216.708 276.708H144.809M317.761 336.798L301.161 360.134M317.761 336.798H398.209M410.477 315.241L398.209 336.798M398.209 336.798L384.929 360.134M217.393 360.134L195.758 385.479M217.393 360.134H301.161M217.393 360.134H133.625M301.161 360.134L283.132 385.479M301.161 360.134H384.929M384.929 360.134L370.505 385.479M195.758 385.479H283.132M195.758 385.479H108.384M263.48 413.104L283.132 385.479M263.48 413.104L241.977 443.332M263.48 413.104H354.784M283.132 385.479H370.505M108.384 385.479H21.0104M108.384 385.479L133.625 360.134M370.505 385.479L354.784 413.104M133.625 360.134H49.8579M241.977 443.332L218.349 476.548M241.977 443.332H337.582M354.784 413.104L337.582 443.332M337.582 443.332L318.679 476.548M118.019 476.548L86.7156 513.219M118.019 476.548H218.349M118.019 476.548H17.6882M218.349 476.548L192.263 513.219M218.349 476.548H318.679M318.679 476.548L297.81 513.219M192.263 513.219H86.7156M192.263 513.219H297.81M86.7156 513.219L0.387546 513.219M17.6882 476.548L0.387546 493.921M17.6882 476.548H0.387546M359.03 25.0634L352.495 29.6573M359.03 25.0634H395.127M359.03 25.0634H322.934M400.804 20.6299L406.286 16.3488M400.804 20.6299L395.127 25.0634M400.804 20.6299H436.27M406.286 16.3488H441.143M406.286 16.3488L411.582 12.2127M377.313 12.2127H411.582M377.313 12.2127L379.47 10.6973L383.003 8.21343M377.313 12.2127H343.045M395.127 25.0634L389.245 29.6573M395.127 25.0634H431.224M436.27 20.6299L441.143 16.3488M436.27 20.6299L431.224 25.0634M441.143 16.3488L444.689 13.2334L445.851 12.2127M411.582 12.2127L412.232 11.7048L416.703 8.21343M411.582 12.2127H445.851M431.224 25.0634L425.996 29.6573M480.119 12.2127L484.102 8.21343M480.119 12.2127H445.851M445.851 12.2127L447.576 10.6973L450.403 8.21343M352.495 29.6573H389.245M352.495 29.6573H315.744M383.146 34.4205L389.245 29.6573M383.146 34.4205L376.818 39.3625M383.146 34.4205H420.575M389.245 29.6573H425.996M315.744 29.6573H278.994M315.744 29.6573L322.934 25.0634M425.996 29.6573L420.575 34.4205M322.934 25.0634H286.837M376.818 39.3625L375.198 40.6269L370.247 44.4937M376.818 39.3625H414.95M420.575 34.4205L414.95 39.3625M414.95 39.3625L409.109 44.4937M331.386 44.4937L330.454 45.1494L323.801 49.8257M331.386 44.4937H370.247M331.386 44.4937H292.525M370.247 44.4937L363.421 49.8257M370.247 44.4937H409.109M409.109 44.4937L408.364 45.1494L403.041 49.8257M323.801 49.8257H363.421M323.801 49.8257H284.181M356.322 55.3698L363.421 49.8257M356.322 55.3698L348.935 61.139M356.322 55.3698H396.731M363.421 49.8257H403.041M284.181 49.8257H244.561M284.181 49.8257L292.525 44.4937M403.041 49.8257L396.731 55.3698M292.525 44.4937H253.663M348.935 61.139L341.241 67.1475M348.935 61.139H390.164M396.731 55.3698L390.164 61.139M390.164 61.139L383.326 67.1475M299.157 67.1475L290.247 73.4106M299.157 67.1475H341.241M299.157 67.1475H257.073M341.241 67.1475L333.222 73.4106M341.241 67.1475H383.326M383.326 67.1475L376.197 73.4106M290.247 73.4106H333.222M290.247 73.4106H247.271M324.856 79.9445L333.222 73.4106M324.856 79.9445L316.119 86.7669M324.856 79.9445H368.76M333.222 73.4106H376.197M247.271 73.4106H204.296M247.271 73.4106L257.073 67.1475M376.197 73.4106L368.76 79.9445M257.073 67.1475H214.988M316.119 86.7669L306.988 93.8984M316.119 86.7669H360.995M368.76 79.9445L360.995 86.7669M360.995 86.7669L352.878 93.8984M261.098 93.8984L250.483 101.36M261.098 93.8984H306.988M261.098 93.8984H215.208M306.988 93.8984L297.435 101.36M306.988 93.8984H352.878M352.878 93.8984L344.386 101.36M250.483 101.36H297.435M250.483 101.36H203.531M287.428 109.174L297.435 101.36M287.428 109.174L276.937 117.368M287.428 109.174H335.492M297.435 101.36H344.386M203.531 101.36H156.579M203.531 101.36L215.208 93.8984M344.386 101.36L335.492 109.174M215.208 93.8984H169.317M276.937 117.368L265.924 125.969M276.937 117.368H326.166M335.492 109.174L326.166 117.368M326.166 117.368L316.377 125.969M215.471 125.969L202.611 135.008M215.471 125.969H265.924M215.471 125.969H165.018M265.924 125.969L254.349 135.008M265.924 125.969H316.377M316.377 125.969L306.089 135.008M202.611 135.008H254.349M202.611 135.008H150.871M242.169 144.52L254.349 135.008M242.169 144.52L229.335 154.544M242.169 144.52H295.262M254.349 135.008H306.089M150.871 135.008H99.1326M150.871 135.008L165.018 125.969M306.089 135.008L295.262 144.52M165.018 125.969H114.565M229.335 154.544L215.792 165.121M229.335 154.544H283.853M295.262 144.52L283.853 154.544M283.853 154.544L271.816 165.121M159.769 165.121L143.868 176.297M159.769 165.121H215.792M159.769 165.121H103.746M215.792 165.121L201.481 176.297M215.792 165.121H271.816M271.816 165.121L259.094 176.297M143.868 176.297H201.481M143.868 176.297H86.2546M186.333 188.128L201.481 176.297M186.333 188.128L170.274 200.67M186.333 188.128H245.629M201.481 176.297H259.094M86.2546 176.297H28.6413M86.2546 176.297L103.746 165.121M259.094 176.297L245.629 188.128M103.746 165.121H47.7231M170.274 200.67L153.217 213.991M170.274 200.67H231.355M245.629 188.128L231.355 200.67M231.355 200.67L216.193 213.991M90.2417 213.991L70.0775 228.164M90.2417 213.991H153.217M90.2417 213.991H27.2658M153.217 213.991L135.07 228.164M153.217 213.991H216.193M216.193 213.991L200.062 228.164M70.0775 228.164H135.07M70.0775 228.164H5.08526M115.72 243.275L135.07 228.164M115.72 243.275L95.0481 259.42M115.72 243.275H182.863M135.07 228.164H200.062M5.08526 228.164L27.2658 213.991M5.08526 228.164H0.387546M5.08526 228.164L0.387546 231.165M200.062 228.164L182.863 243.275M27.2658 213.991H0.387546M95.0481 259.42L72.911 276.708M95.0481 259.42H164.487M182.863 243.275L164.487 259.42M164.487 259.42L144.809 276.708M1.01196 276.708H72.911M1.01196 276.708H0.387546M1.01196 276.708L0.387546 277.147M72.911 276.708L49.1473 295.267M72.911 276.708H144.809M144.809 276.708L123.687 295.267M23.5726 315.241L49.1473 295.267M23.5726 315.241H100.953M23.5726 315.241H0.387546M23.5726 315.241L0.387546 333.348M49.1473 295.267H123.687M49.1473 295.267H0.387546M123.687 295.267L100.953 315.241M100.953 315.241L76.4183 336.798M76.4183 336.798L49.8579 360.134M76.4183 336.798H0.387546M49.8579 360.134L21.0104 385.479M49.8579 360.134H0.387546M21.0104 385.479H0.387546M21.0104 385.479L0.387546 403.599M214.642 25.0634L205.493 29.6573M214.642 25.0634H250.74M214.642 25.0634H178.546M258.939 20.6299L266.857 16.3488M258.939 20.6299L250.74 25.0634M258.939 20.6299H294.405M266.857 16.3488H301.714M266.857 16.3488L274.507 12.2127M240.239 12.2127H274.507M240.239 12.2127L248.204 8.21343M240.239 12.2127H205.97M250.74 25.0634L242.243 29.6573M250.74 25.0634H286.837M294.405 20.6299L301.714 16.3488M294.405 20.6299L286.837 25.0634M301.714 16.3488L308.776 12.2127M274.507 12.2127L275.445 11.7048L281.904 8.21343M274.507 12.2127H308.776M286.837 25.0634L278.994 29.6573M343.045 12.2127L349.303 8.21343M343.045 12.2127H308.776M308.776 12.2127L309.642 11.7048L315.603 8.21343M205.493 29.6573H242.243M205.493 29.6573H168.742M233.433 34.4205L242.243 29.6573M233.433 34.4205L224.293 39.3625M233.433 34.4205H270.862M242.243 29.6573H278.994M168.742 29.6573H131.992M168.742 29.6573L178.546 25.0634M278.994 29.6573L270.862 34.4205M178.546 25.0634H142.449M224.293 39.3625L214.802 44.4937M224.293 39.3625H262.424M270.862 34.4205L269.824 35.0277L262.424 39.3625M262.424 39.3625L253.663 44.4937M175.941 44.4937L165.321 49.8257M175.941 44.4937H214.802M175.941 44.4937H137.079M214.802 44.4937L204.941 49.8257M214.802 44.4937H253.663M253.663 44.4937L244.561 49.8257M165.321 49.8257H204.941M165.321 49.8257H125.701M194.687 55.3698L204.941 49.8257M194.687 55.3698L184.017 61.139M194.687 55.3698H235.096M204.941 49.8257H244.561M125.701 49.8257H86.0814M125.701 49.8257L137.079 44.4937M244.561 49.8257L235.096 55.3698M137.079 44.4937H98.2181M184.017 61.139L172.904 67.1475M184.017 61.139H225.246M235.096 55.3698L225.246 61.139M225.246 61.139L214.988 67.1475M130.82 67.1475L118.345 73.4106M130.82 67.1475H172.904M130.82 67.1475H88.735M172.904 67.1475L161.321 73.4106M172.904 67.1475H214.988M214.988 67.1475L204.296 73.4106M118.345 73.4106H161.321M118.345 73.4106H75.3697M149.236 79.9445L161.321 73.4106M149.236 79.9445L136.617 86.7669M149.236 79.9445H193.141M161.321 73.4106H204.296M75.3697 73.4106H32.3946M75.3697 73.4106L88.735 67.1475M204.296 73.4106L193.141 79.9445M88.735 67.1475H46.6511M136.617 86.7669L123.427 93.8984M136.617 86.7669H181.492M193.141 79.9445L181.492 86.7669M181.492 86.7669L169.317 93.8984M77.5368 93.8984L62.676 101.36M77.5368 93.8984H123.427M77.5368 93.8984H31.6472M123.427 93.8984L109.628 101.36M123.427 93.8984H169.317M169.317 93.8984L156.579 101.36M62.676 101.36H109.628M95.174 109.174L109.628 101.36M95.174 109.174L80.0202 117.368M95.174 109.174H143.238M109.628 101.36H156.579M156.579 101.36L143.238 109.174M31.6472 93.8984H0.387546M80.0202 117.368L64.1122 125.969M80.0202 117.368H129.249M143.238 109.174L129.249 117.368M129.249 117.368L114.565 125.969M13.6591 125.969H64.1122M13.6591 125.969H0.387546M13.6591 125.969L0.387546 132.632M64.1122 125.969L47.3932 135.008M64.1122 125.969H114.565M114.565 125.969L99.1326 135.008M29.8002 144.52L47.3932 135.008M29.8002 144.52L11.2619 154.544M29.8002 144.52H82.8926M29.8002 144.52H0.387546M47.3932 135.008H99.1326M47.3932 135.008H0.387546M99.1326 135.008L82.8926 144.52M0.241375 132.705L0.387546 132.632M11.2619 154.544H65.7801M11.2619 154.544H0.387546M11.2619 154.544L0.387546 160.423M82.8926 144.52L65.7801 154.544M65.7801 154.544L47.7231 165.121M47.7231 165.121L28.6413 176.297M47.7231 165.121H0.387546M8.44421 188.128L28.6413 176.297M8.44421 188.128H0.387546M8.44421 188.128L0.387546 192.847M28.6413 176.297H0.387546M70.2552 25.0634L58.491 29.6573M70.2552 25.0634H106.352M70.2552 25.0634H34.1576M117.074 20.6299L127.428 16.3488M117.074 20.6299L106.352 25.0634M117.074 20.6299H152.541M127.428 16.3488H162.285M127.428 16.3488L137.433 12.2127M103.164 12.2127H137.433M103.164 12.2127L113.405 8.21343M103.164 12.2127H68.8954M106.352 25.0634L95.2415 29.6573M106.352 25.0634H142.449M152.541 20.6299L162.285 16.3488M152.541 20.6299L142.449 25.0634M162.285 16.3488L171.701 12.2127M137.433 12.2127H171.701M137.433 12.2127L147.105 8.21343M142.449 25.0634L131.992 29.6573M205.97 12.2127L214.504 8.21343M205.97 12.2127H171.701M171.701 12.2127L180.805 8.21343M58.491 29.6573H95.2415M58.491 29.6573H21.7405M83.7209 34.4205L95.2415 29.6573M83.7209 34.4205L71.7679 39.3625M83.7209 34.4205H121.149M95.2415 29.6573H131.992M21.7405 29.6573L34.1576 25.0634M21.7405 29.6573H0.387546M131.992 29.6573L121.149 34.4205M34.1576 25.0634H0.387546M71.7679 39.3625L59.3568 44.4937M71.7679 39.3625H109.899M121.149 34.4205L109.899 39.3625M109.899 39.3625L98.2181 44.4937M20.4955 44.4937L6.84157 49.8257M20.4955 44.4937H59.3568M20.4955 44.4937H0.387546M59.3568 44.4937L46.4615 49.8257M59.3568 44.4937H98.2181M98.2181 44.4937L86.0814 49.8257M33.0527 55.3698L46.4615 49.8257M33.0527 55.3698L19.099 61.139M33.0527 55.3698H73.4612M33.0527 55.3698H0.387546M46.4615 49.8257H6.84157M46.4615 49.8257H86.0814M6.84157 49.8257L0.387546 52.3457M6.84157 49.8257H0.387546M86.0814 49.8257L73.4612 55.3698M19.099 61.139L4.56654 67.1475M19.099 61.139H60.3283M19.099 61.139H0.387546M73.4612 55.3698L60.3283 61.139M60.3283 61.139L46.6511 67.1475M4.56654 67.1475H46.6511M4.56654 67.1475L0.387546 68.875M4.56654 67.1475H0.387546M46.6511 67.1475L32.3946 73.4106M17.5211 79.9445L32.3946 73.4106M17.5211 79.9445L1.99018 86.7669M17.5211 79.9445H0.387546M32.3946 73.4106H0.387546M0.162665 73.4106H0.387546M1.99018 86.7669H0.387546M1.99018 86.7669L0.387546 87.471M0 87.6412L0.387546 87.471M10.6758 20.6299L22.8567 16.3488M10.6758 20.6299H0.387546M10.6758 20.6299L0.387546 24.2454M22.8567 16.3488L34.6269 12.2127M22.8567 16.3488H0.387546M68.8954 12.2127L79.7053 8.21343M68.8954 12.2127H34.6269M34.6269 12.2127L46.0057 8.21343M34.6269 12.2127H0.387546M1191.8 8.21343H1225.5M1191.8 8.21343H1158.1M1217.24 4.34517L1219.28 5.30046L1225.5 8.21343M1217.24 4.34517H1250.39M1225.5 8.21343H1259.2M1250.39 4.34517L1252.56 5.30046L1253.66 5.78032L1259.2 8.21343M1259.2 8.21343H1292.89M1292.89 8.21343H1326.6M1158.1 8.21343H1124.4M1326.6 8.21343H1360.29M1360.29 8.21343L1349.84 4.34517M1360.29 8.21343H1393.99M1349.84 4.34517H1382.99M1057 8.21343H1090.7M1057 8.21343H1023.3M1084.64 4.34517L1086.14 5.30046L1086.89 5.78032L1090.7 8.21343M1084.64 4.34517H1117.79M1090.7 8.21343H1124.4M1117.79 4.34517L1124.4 8.21343M1023.3 8.21343H989.598M922.198 8.21343H955.898M922.198 8.21343H888.499M952.045 4.34517L952.52 4.82135L952.996 5.30046L953.475 5.78032L955.898 8.21343M952.045 4.34517H985.194M955.898 8.21343H989.598M985.194 4.34517L989.598 8.21343M888.499 8.21343H854.798M787.399 8.21343H821.099M787.399 8.21343H753.7M819.448 4.34517L821.099 8.21343M819.448 4.34517H852.598M821.099 8.21343H854.798M852.598 4.34517L852.869 4.82135L853.141 5.30046L853.415 5.78032L854.798 8.21343M753.7 8.21343H720M652.601 8.21343H686.3M652.601 8.21343H618.901M686.851 4.34517L686.3 8.21343M686.851 4.34517H720M686.3 8.21343H720M720 4.34517V8.21343M618.901 8.21343H585.201M517.802 8.21343H551.501M517.802 8.21343H484.102M554.253 4.34517L553.574 5.30046L552.198 7.23386L551.501 8.21343M554.253 4.34517H587.402M551.501 8.21343H585.201M587.402 4.34517L587.131 4.82135L586.859 5.30046L586.585 5.78032L585.201 8.21343M484.102 8.21343H450.403M383.003 8.21343H416.703M383.003 8.21343H349.303M421.656 4.34517L420.433 5.30046L419.817 5.78032L416.703 8.21343M421.656 4.34517H454.806M416.703 8.21343H450.403M454.806 4.34517L454.263 4.82135L450.403 8.21343M349.303 8.21343H315.603M248.204 8.21343H281.904M248.204 8.21343H214.504M289.059 4.34517L287.292 5.30046L286.403 5.78032L281.904 8.21343M289.059 4.34517H322.208M281.904 8.21343H315.603M322.208 4.34517L321.394 4.82135L315.603 8.21343M214.504 8.21343H180.805M113.405 8.21343H147.105M113.405 8.21343H79.7053M156.461 4.34517L147.105 8.21343M156.461 4.34517H189.61M147.105 8.21343H180.805M189.61 4.34517L187.437 5.30046L186.342 5.78032L180.805 8.21343M79.7053 8.21343H46.0057M23.8641 4.34517L12.3061 8.21343M23.8641 4.34517H57.0136M23.8641 4.34517H0.387546M12.3061 8.21343H46.0057M12.3061 8.21343L0.387546 12.2029M12.3061 8.21343H0.387546M57.0136 4.34517L54.2955 5.30046L46.0057 8.21343M1382.99 4.34517L1385.7 5.30046L1393.99 8.21343M1393.99 8.21343H1427.69M1427.69 8.21343L1439.61 12.2029M1427.69 8.21343H1439.61M1439.61 192.847V188.128M1439.61 192.847V200.67M1439.61 188.128V176.297M1439.61 200.67V203.007V213.991M1439.61 213.991V228.164M1439.61 101.36V93.8984M1439.61 101.36V108.546M1439.61 4.34517V8.21343M1439.61 8.21343V12.2029M1439.61 12.2029L1439.64 12.2127H1439.61M1439.61 12.2029V12.2127M1439.61 12.2127V16.3488M1439.61 16.3488V20.6299M1439.61 20.6299V24.2454M1439.61 24.2454V25.0634M1439.61 25.0634V29.6573M1439.61 29.6573V34.4205M1439.61 34.4205V37.5558M1439.61 37.5558V39.3625M1439.61 39.3625V44.4937M1439.61 44.4937V49.8257M1439.61 49.8257V52.3457M1439.61 52.3457V55.3698M1439.61 55.3698V61.139M1439.61 61.139V67.1475M1439.61 67.1475V68.875M1439.61 68.875V73.4106M1439.61 73.4106V79.9445M1439.61 79.9445V86.7669M1439.61 86.7669V87.471M1439.61 87.471V93.8984M1439.61 109.174V117.368M1439.61 109.174V108.546M1439.61 117.368V125.969M1439.61 125.969V132.632M1439.61 132.632V135.008M1439.61 135.008V144.52M1439.61 144.52V154.544M1439.61 154.544V160.423M1439.61 160.423V165.121M1439.61 165.121V176.297M1439.61 228.164V231.165M1439.61 231.165V243.275M1439.61 243.275V259.42M1439.61 259.42V276.708M1439.61 276.708V277.147M1439.61 277.147V295.267M1439.61 295.267V315.241M1439.61 315.241V333.348M1439.61 333.348V336.798M1439.61 336.798V360.134M1439.61 360.134V385.479M1439.61 385.479V403.599M1439.61 403.599V413.104M1439.61 413.104V443.332M1439.61 443.332V476.548M1439.61 476.548V493.921M1439.61 493.921V513.219M1439.61 513.219V513.35H0.387546V513.219M0.387546 109.174V117.368M0.387546 109.174V108.546M0.387546 108.546V101.36M0.387546 101.36V93.8984M0.387546 93.8984V87.471M0.387546 87.471V86.7669M0.387546 86.7669V79.9445M0.387546 79.9445V73.4106M0.387546 73.4106V68.875M0.387546 68.875V67.1475M0.387546 67.1475V61.139M0.387546 61.139V55.3698M0.387546 55.3698V52.3457M0.387546 52.3457V49.8257M0.387546 49.8257V44.4937M0.387546 44.4937V39.3625M0.387546 39.3625V37.5558M0.387546 37.5558V34.4205M0.387546 34.4205V29.6573M0.387546 29.6573V25.0634M0.387546 25.0634V24.2454M0.387546 24.2454V20.6299M0.387546 20.6299V16.3488M0.387546 16.3488V12.2127M0.387546 12.2127H0.35831L0.387546 12.2029M0.387546 12.2127V12.2029M0.387546 12.2029V8.21343M0.387546 8.21343V4.34517M0.387546 513.219V493.921M0.387546 493.921V476.548M0.387546 476.548V443.333M0.387546 443.333V413.104M0.387546 413.104V403.599M0.387546 403.599V385.479M0.387546 385.479V360.134M0.387546 360.134V336.798M0.387546 336.798V333.348M0.387546 333.348V315.241M0.387546 315.241V295.267M0.387546 295.267V277.147M0.387546 277.147V276.708M0.387546 276.708V259.42M0.387546 259.42V243.275M0.387546 243.275V231.165M0.387546 231.165V228.164M0.387546 228.164V213.991M0.387546 213.991V200.67M0.387546 200.67V192.847M0.387546 192.847V188.128M0.387546 188.128V176.297M0.387546 176.297V165.121M0.387546 165.121V160.423M0.387546 160.423V154.544M0.387546 154.544V144.52M0.387546 144.52V135.008M0.387546 135.008V132.632M0.387546 132.632V125.969M0.387546 125.969V117.368" stroke="url(#paint0_radial_0_2472)" stroke-opacity="0.2" stroke-width="1.2" stroke-miterlimit="10" stroke-linecap="round" stroke-linejoin="round"/>
<defs>
<radialGradient id="paint0_radial_0_2472" cx="0" cy="0" r="1" gradientUnits="userSpaceOnUse" gradientTransform="translate(720 215.841) rotate(90) scale(190.068 1070.68)">
<stop stop-color="white"/>
<stop offset="0.686542" stop-color="white" stop-opacity="0"/>
</radialGradient>
</defs>
</svg>
