<svg width="163" height="36" viewBox="0 0 163 36" fill="none" xmlns="http://www.w3.org/2000/svg">
<g clip-path="url(#clip0_0_2903)">
<path d="M29.3009 7.29845C28.3894 6.38183 27.2939 5.66892 26.0866 5.20678C24.8793 4.74463 23.5878 4.54375 22.2972 4.61739C21.0066 4.69102 19.7463 5.03751 18.5994 5.63398C17.4525 6.23045 16.4452 7.06334 15.6438 8.07769L0.927414 24.6241L13.6723 13.2038C13.6496 13.5308 13.6472 13.8586 13.6597 14.1872L0.810059 28.4608L14.04 16.4593C14.126 16.7487 14.2277 17.0343 14.3435 17.3152L1.78177 31.2038L15.2206 18.9558C15.3833 19.1976 15.5586 19.433 15.7471 19.6607L3.36607 33.3319L16.9848 20.9031C17.2125 21.0925 17.4464 21.2677 17.6874 21.432L5.48552 34.9217L19.321 22.313C19.6011 22.4295 19.8859 22.5297 20.1738 22.6181L8.21756 35.8981L22.4364 22.9991C22.7627 23.0132 23.0897 23.0093 23.4152 22.9874L12.0395 35.7792L28.524 21.008C28.7924 20.7928 29.0514 20.562 29.3002 20.3124C32.8803 16.719 32.8811 10.8927 29.3009 7.29845Z" fill="#2BE195"/>
<path d="M42.4847 17.8605C43.1654 17.6234 43.9571 17.5037 44.86 17.5037C46.1024 17.5037 47.0718 17.6445 47.7673 17.9262C48.4628 18.2086 48.8837 18.5505 49.0324 18.9511H52.1846C52.021 18.2978 51.6549 17.6962 51.0853 17.147C50.5158 16.5977 49.7123 16.1479 48.6764 15.7989C47.6405 15.45 46.3684 15.2747 44.8584 15.2747C43.3484 15.2747 41.973 15.4915 40.819 15.921C39.6642 16.3521 38.7723 16.9576 38.1433 17.7376C37.5143 18.5177 37.2013 19.4119 37.2013 20.422C37.2013 21.4923 37.5112 22.428 38.1331 23.2291C38.7551 24.0318 39.6431 24.6523 40.7971 25.0904C41.9511 25.5285 43.3054 25.7476 44.86 25.7476C46.4138 25.7476 47.5936 25.5543 48.6216 25.1686C49.6505 24.7813 50.4461 24.2806 51.0079 23.6641C51.5696 23.0484 51.9397 22.3834 52.1173 21.6691H49.0324C48.8837 22.1901 48.4628 22.6283 47.7673 22.9835C47.071 23.341 46.1024 23.5186 44.86 23.5186C43.972 23.5186 43.1865 23.384 42.5066 23.1172C41.8259 22.8497 41.2963 22.478 40.9184 22.0031C40.5413 21.5275 40.3527 21.0001 40.3527 20.4212C40.3527 19.8422 40.5374 19.3298 40.9082 18.8838C41.2775 18.4379 41.8033 18.0975 42.4839 17.8589L42.4847 17.8605ZM67.656 22.9858C67.5684 22.8825 67.523 22.6885 67.523 22.4061V21.716H67.5206L67.5003 19.153C67.5003 18.3956 67.2225 17.7236 66.6686 17.1368C66.1131 16.55 65.2956 16.0939 64.2159 15.7661C63.1354 15.4398 61.8476 15.2763 60.3533 15.2763C58.5038 15.2763 57.0673 15.5032 56.0471 15.9554C55.0261 16.4092 54.3533 16.8723 54.0278 17.348C53.7016 17.8229 53.5091 18.2094 53.4504 18.5059H56.558C56.691 18.1656 57.0689 17.8714 57.6909 17.6258C58.3121 17.3801 59.1931 17.2581 60.3322 17.2581C61.1905 17.2581 61.9259 17.3253 62.5408 17.4583C63.155 17.5921 63.6283 17.7963 63.9616 18.0709C64.2926 18.344 64.4584 18.6788 64.46 19.0763C64.3012 19.081 64.1173 19.0841 63.9053 19.0841C62.2702 19.1355 60.6376 19.247 59.0108 19.4182C57.4945 19.5825 56.0769 19.9267 54.7593 20.4548C53.4426 20.9821 52.7698 21.7356 52.7408 22.7167C52.7103 23.6086 53.0913 24.3362 53.8831 24.9011C54.6749 25.4659 55.9658 25.7476 57.7558 25.7476C59.7399 25.7476 61.3258 25.4683 62.5174 24.9128C63.3889 24.506 64.0711 24.0498 64.5664 23.5468C64.6165 23.8206 64.6837 24.0577 64.7706 24.2548C64.9779 24.7305 65.3362 25.0607 65.8471 25.2469C66.358 25.4331 67.1083 25.5262 68.1004 25.5262H68.7224V23.1415H68.1004C67.893 23.1415 67.7444 23.0891 67.656 22.9858ZM63.439 22.496C62.7583 22.9123 61.9251 23.2315 60.9417 23.4544C59.9574 23.6774 59.0366 23.7737 58.1791 23.7439C57.5571 23.7291 57.058 23.6477 56.6809 23.4983C56.3038 23.3504 56.1152 23.1345 56.1152 22.8528C56.1152 22.3333 56.6143 21.921 57.6134 21.6167C58.6117 21.3115 59.7618 21.0964 61.0645 20.9704C62.1934 20.856 63.3269 20.7934 64.4616 20.7826V21.0925C64.4616 21.6135 64.1204 22.0806 63.4406 22.4968L63.439 22.496ZM95.0828 22.9858C94.9944 22.8825 94.9498 22.6885 94.9498 22.4061V21.716H94.9475L94.9271 19.153C94.9271 18.3956 94.6486 17.7236 94.0947 17.1368C93.54 16.55 92.7216 16.0939 91.642 15.7661C90.5615 15.4398 89.2737 15.2763 87.7802 15.2763C85.9306 15.2763 84.4942 15.5032 83.474 15.9554C82.4522 16.4092 81.7794 16.8723 81.4547 17.348C81.1284 17.8229 80.936 18.2094 80.8765 18.5059H83.9849C84.1187 18.1656 84.4958 17.8714 85.117 17.6258C85.739 17.3801 86.6191 17.2581 87.7583 17.2581C88.6173 17.2581 89.3527 17.3253 89.9677 17.4583C90.5818 17.5921 91.0552 17.7963 91.3877 18.0709C91.7186 18.344 91.8853 18.6788 91.8868 19.0763C91.728 19.081 91.5442 19.0841 91.3321 19.0841C89.6971 19.1355 88.0645 19.2469 86.4376 19.4182C84.9206 19.5825 83.5037 19.9267 82.1862 20.4548C80.8687 20.9821 80.1958 21.7356 80.1669 22.7167C80.1372 23.6086 80.5182 24.3362 81.3099 24.9011C82.1017 25.4659 83.3926 25.7476 85.1827 25.7476C87.166 25.7476 88.7527 25.4683 89.9442 24.9128C90.815 24.506 91.498 24.0498 91.9932 23.5468C92.0433 23.8206 92.1106 24.0577 92.1974 24.2548C92.4048 24.7305 92.7631 25.0607 93.274 25.2469C93.7849 25.4331 94.5352 25.5262 95.5272 25.5262H96.1492V23.1415H95.5272C95.3199 23.1415 95.1712 23.0891 95.0828 22.9858ZM90.8651 22.496C90.1844 22.9123 89.352 23.2315 88.3685 23.4544C87.3843 23.6774 86.4627 23.7737 85.6052 23.7439C84.984 23.7291 84.4848 23.6477 84.1077 23.4983C83.7306 23.3504 83.5421 23.1345 83.5421 22.8528C83.5421 22.3333 84.0404 21.921 85.0395 21.6167C86.0386 21.3115 87.1887 21.0964 88.4913 20.9704C89.62 20.856 90.7533 20.7934 91.8876 20.7826V21.0925C91.8876 21.6135 91.5473 22.0806 90.8674 22.4968L90.8651 22.496ZM109.517 15.9116C108.303 15.4586 106.853 15.2614 105.167 15.3209C103.776 15.3647 102.606 15.6847 101.659 16.2793C101.2 16.5623 100.776 16.897 100.394 17.2768V15.4993H97.3525V29.6039H100.461V23.8143C100.801 24.1484 101.2 24.459 101.659 24.7469C102.606 25.3415 103.775 25.66 105.167 25.7053C106.868 25.764 108.325 25.5794 109.54 25.1483C110.753 24.718 111.67 24.1007 112.292 23.2988C112.914 22.4968 113.224 21.576 113.224 20.5354C113.224 19.4949 112.91 18.6155 112.281 17.8065C111.651 16.9967 110.731 16.3654 109.518 15.9124L109.517 15.9108V15.9116ZM109.428 22.1174C109 22.5633 108.437 22.9013 107.742 23.1305C107.026 23.3642 106.276 23.4808 105.522 23.4756C104.694 23.4756 103.891 23.3754 103.114 23.1751C102.337 22.9748 101.693 22.6509 101.183 22.2058C100.672 21.7598 100.416 21.1965 100.416 20.5127C100.416 19.7703 100.672 19.1796 101.183 18.7406C101.693 18.3033 102.329 17.9943 103.091 17.8159C103.853 17.6375 104.664 17.5491 105.522 17.5491C106.306 17.5491 107.045 17.668 107.742 17.9059C108.437 18.1437 109 18.4895 109.428 18.9425C109.858 19.3963 110.072 19.9259 110.072 20.5354C110.072 21.1457 109.857 21.6722 109.428 22.1174ZM125.743 20.0433C125.714 20.7122 125.551 21.3107 125.255 21.8373C124.959 22.3646 124.467 22.7957 123.779 23.1298C123.09 23.4638 122.162 23.6305 120.993 23.6305C120.149 23.6305 119.465 23.5491 118.94 23.3856C118.415 23.2213 118.019 22.9436 117.753 22.55C117.486 22.1565 117.353 21.6253 117.353 20.9563V15.4969H114.245V20.8898C114.245 22.0337 114.47 22.9811 114.921 23.7298C115.373 24.4809 116.098 25.0301 117.097 25.3791C118.096 25.728 119.395 25.8501 120.993 25.7468C122.147 25.6717 123.132 25.4096 123.945 24.9566C124.728 24.52 125.349 23.9802 125.81 23.3379V25.5238H128.851V15.4969H125.743V20.0433ZM162.568 23.1415C162.361 23.1415 162.213 23.0891 162.124 22.9858C162.036 22.8825 161.991 22.6885 161.991 22.4061V21.716H161.989L161.968 19.153C161.968 18.3956 161.69 17.7236 161.136 17.1368C160.581 16.55 159.763 16.0939 158.683 15.7661C157.603 15.4398 156.315 15.2763 154.821 15.2763C152.971 15.2763 151.536 15.5032 150.515 15.9554C149.494 16.4092 148.821 16.8723 148.495 17.348C148.169 17.8229 147.977 18.2094 147.918 18.5059H151.026C151.159 18.1656 151.536 17.8714 152.158 17.6258C152.78 17.3801 153.66 17.2581 154.8 17.2581C155.658 17.2581 156.393 17.3253 157.008 17.4583C157.623 17.5921 158.096 17.7963 158.429 18.0709C158.76 18.344 158.926 18.6788 158.928 19.0763C158.769 19.081 158.585 19.0841 158.373 19.0841C156.738 19.1356 155.105 19.247 153.478 19.4182C151.962 19.5825 150.544 19.9267 149.227 20.4548C147.91 20.9821 147.237 21.7356 147.208 22.7167C147.179 23.6086 147.56 24.3362 148.351 24.9011C149.142 25.4659 150.433 25.7476 152.224 25.7476C154.208 25.7476 155.793 25.4683 156.985 24.9128C157.857 24.506 158.539 24.0498 159.034 23.5468C159.084 23.8206 159.152 24.0577 159.238 24.2548C159.446 24.7305 159.804 25.0607 160.315 25.2469C160.826 25.4331 161.576 25.5262 162.568 25.5262H163.19V23.1415H162.568ZM157.907 22.496C157.226 22.9123 156.393 23.2315 155.409 23.4544C154.425 23.6774 153.504 23.7737 152.647 23.7439C152.025 23.7291 151.526 23.6477 151.148 23.4983C150.771 23.3504 150.583 23.1345 150.583 22.8528C150.583 22.3333 151.082 21.921 152.081 21.6167C153.079 21.3115 154.23 21.0964 155.532 20.9704C156.661 20.856 157.795 20.7934 158.929 20.7826V21.0925C158.929 21.6135 158.588 22.0806 157.908 22.4968L157.907 22.496ZM133.567 22.9631C133.457 22.845 133.4 22.6369 133.4 22.3388V11.1876C132.402 11.0835 131.403 10.9865 130.404 10.8966V22.338C130.404 23.2299 130.518 23.902 130.747 24.3542C130.977 24.8079 131.354 25.1154 131.88 25.2789C132.405 25.4432 133.17 25.5246 134.177 25.5246H136.086V23.1407H134.177C133.881 23.1407 133.678 23.082 133.567 22.9631ZM73.7522 12.1515C72.7513 12.3016 71.7521 12.4633 70.755 12.6366V15.4993H68.2913V17.7275H70.755V22.3403C70.755 23.2315 70.87 23.9035 71.0992 24.3565C71.3277 24.8103 71.7055 25.1178 72.2313 25.2813C72.7563 25.4456 73.53 25.5269 74.5502 25.5269H79.4557V23.1431H74.5502C74.2545 23.1431 74.0511 23.0836 73.94 22.9639C73.8289 22.8465 73.7734 22.6376 73.7734 22.3403L73.7632 17.7275H79.4557V15.4993H73.7585L73.7522 12.1515ZM140.795 12.1163C139.806 11.9694 138.815 11.8317 137.823 11.7032C137.823 12.6366 137.799 14.0034 137.779 15.4993H135.332V17.7275H137.757C137.74 20.8288 137.794 23.8535 138.141 24.3565C138.878 25.5848 139.998 25.4456 141.593 25.5262H146.497V23.1415C146.119 23.0617 141.147 23.3379 140.982 22.9631C140.87 22.845 140.814 22.6369 140.814 22.3388L140.805 17.7267H146.496V15.4977H140.802L140.795 12.1147V12.1163Z" fill="white"/>
</g>
<defs>
<clipPath id="clip0_0_2903">
<rect width="163" height="36" fill="white"/>
</clipPath>
</defs>
</svg>
